<svg xmlns="http://www.w3.org/2000/svg" xmlns:xlink="http://www.w3.org/1999/xlink" width="320" zoomAndPan="magnify" viewBox="0 0 240 89.999999" height="120" preserveAspectRatio="xMidYMid meet" version="1.0"><defs><clipPath id="2a7976c0ba"><path d="M 219 30 L 222.257812 30 L 222.257812 34 L 219 34 Z M 219 30 " clip-rule="nonzero"/></clipPath><clipPath id="03146f92ff"><path d="M 13.757812 27.769531 L 49 27.769531 L 49 62.269531 L 13.757812 62.269531 Z M 13.757812 27.769531 " clip-rule="nonzero"/></clipPath></defs><rect x="-24" width="288" fill="#ffffff" y="-9" height="107.999999" fill-opacity="1"/><rect x="-24" width="288" fill="#1c115d" y="-9" height="107.999999" fill-opacity="1"/><path fill="#ffffff" d="M 57.488281 55.871094 L 57.488281 36.828125 L 61.730469 36.828125 L 61.730469 55.871094 Z M 60.59375 49.816406 L 60.59375 46.480469 L 65.25 46.480469 C 65.871094 46.480469 66.410156 46.355469 66.867188 46.105469 C 67.324219 45.851562 67.679688 45.5 67.929688 45.042969 C 68.179688 44.585938 68.304688 44.054688 68.304688 43.449219 C 68.304688 42.847656 68.179688 42.316406 67.929688 41.859375 C 67.679688 41.402344 67.324219 41.046875 66.867188 40.796875 C 66.410156 40.546875 65.871094 40.421875 65.25 40.421875 L 60.59375 40.421875 L 60.59375 36.828125 L 64.914062 36.828125 C 66.484375 36.828125 67.847656 37.0625 69.003906 37.539062 C 70.160156 38.011719 71.046875 38.714844 71.671875 39.644531 C 72.292969 40.578125 72.601562 41.75 72.601562 43.164062 L 72.601562 43.578125 C 72.601562 44.972656 72.285156 46.136719 71.660156 47.058594 C 71.027344 47.980469 70.140625 48.671875 68.992188 49.128906 C 67.84375 49.585938 66.488281 49.816406 64.917969 49.816406 Z M 68.953125 55.871094 L 63.414062 47.746094 L 68.074219 47.746094 L 73.871094 55.871094 Z M 68.953125 55.871094 " fill-opacity="1" fill-rule="nonzero"/><path fill="#ffffff" d="M 81.011719 56.363281 C 79.546875 56.363281 78.273438 56.09375 77.195312 55.550781 C 76.113281 55.007812 75.289062 54.265625 74.722656 53.339844 C 74.152344 52.40625 73.867188 51.355469 73.867188 50.179688 L 77.957031 50.179688 C 77.957031 50.976562 78.226562 51.617188 78.761719 52.109375 C 79.296875 52.601562 80.046875 52.84375 81.011719 52.84375 C 81.648438 52.84375 82.191406 52.726562 82.640625 52.484375 C 83.089844 52.242188 83.433594 51.910156 83.675781 51.488281 C 83.917969 51.066406 84.039062 50.585938 84.039062 50.050781 C 84.039062 49.222656 83.777344 48.542969 83.25 48.007812 C 82.722656 47.476562 81.976562 47.207031 81.007812 47.207031 C 80.492188 47.207031 80.039062 47.285156 79.652344 47.4375 C 79.261719 47.59375 78.929688 47.785156 78.65625 48.007812 L 76.742188 44.773438 L 82.460938 41.046875 L 82.226562 40.605469 L 74.644531 40.605469 L 74.644531 36.984375 L 87.375 36.984375 L 87.375 40.917969 L 80.777344 45.109375 L 78.707031 44.542969 C 79.050781 44.4375 79.417969 44.355469 79.804688 44.296875 C 80.195312 44.234375 80.613281 44.207031 81.058594 44.207031 C 82.527344 44.207031 83.785156 44.445312 84.839844 44.929688 C 85.890625 45.414062 86.707031 46.089844 87.285156 46.960938 C 87.863281 47.835938 88.152344 48.847656 88.152344 50 L 88.152344 50.3125 C 88.152344 51.46875 87.863281 52.503906 87.285156 53.417969 C 86.707031 54.328125 85.890625 55.050781 84.824219 55.578125 C 83.765625 56.105469 82.492188 56.367188 81.007812 56.367188 Z M 81.011719 56.363281 " fill-opacity="1" fill-rule="nonzero"/><path fill="#ffffff" d="M 104.441406 56.507812 C 102.714844 56.507812 101.246094 56.207031 100.03125 55.601562 C 98.816406 55 97.835938 54.214844 97.09375 53.25 C 96.351562 52.28125 95.804688 51.234375 95.464844 50.105469 C 95.117188 48.976562 94.945312 47.886719 94.945312 46.832031 L 94.945312 46.261719 C 94.945312 45.125 95.121094 43.988281 95.476562 42.847656 C 95.832031 41.710938 96.378906 40.671875 97.121094 39.742188 C 97.863281 38.808594 98.828125 38.058594 100.019531 37.492188 C 101.207031 36.921875 102.632812 36.636719 104.289062 36.636719 C 105.941406 36.636719 107.425781 36.933594 108.636719 37.515625 C 109.84375 38.105469 110.800781 38.921875 111.507812 39.972656 C 112.214844 41.027344 112.648438 42.269531 112.800781 43.699219 L 110.214844 43.699219 C 110.074219 42.628906 109.730469 41.746094 109.179688 41.046875 C 108.625 40.347656 107.929688 39.828125 107.09375 39.480469 C 106.257812 39.136719 105.324219 38.964844 104.289062 38.964844 C 103.167969 38.964844 102.179688 39.15625 101.335938 39.546875 C 100.492188 39.933594 99.789062 40.476562 99.230469 41.175781 C 98.667969 41.878906 98.246094 42.683594 97.960938 43.597656 C 97.675781 44.507812 97.535156 45.5 97.535156 46.570312 C 97.535156 47.640625 97.675781 48.554688 97.960938 49.46875 C 98.246094 50.382812 98.675781 51.195312 99.253906 51.898438 C 99.832031 52.605469 100.550781 53.164062 101.414062 53.566406 C 102.277344 53.972656 103.285156 54.175781 104.445312 54.175781 C 106.066406 54.175781 107.429688 53.769531 108.535156 52.960938 C 109.636719 52.152344 110.3125 50.976562 110.550781 49.441406 L 113.140625 49.441406 C 112.964844 50.734375 112.53125 51.914062 111.832031 52.984375 C 111.132812 54.054688 110.167969 54.910156 108.933594 55.546875 C 107.699219 56.183594 106.203125 56.503906 104.445312 56.503906 Z M 104.441406 56.507812 " fill-opacity="1" fill-rule="nonzero"/><path fill="#ffffff" d="M 121.238281 56.507812 C 120.03125 56.507812 118.96875 56.300781 118.054688 55.886719 C 117.140625 55.472656 116.367188 54.925781 115.738281 54.246094 C 115.109375 53.5625 114.636719 52.800781 114.316406 51.957031 C 113.996094 51.109375 113.839844 50.246094 113.839844 49.367188 L 113.839844 48.902344 C 113.839844 48.023438 114.003906 47.15625 114.332031 46.304688 C 114.660156 45.449219 115.140625 44.683594 115.78125 44 C 116.417969 43.320312 117.195312 42.777344 118.109375 42.371094 C 119.023438 41.96875 120.070312 41.765625 121.242188 41.765625 C 122.417969 41.765625 123.460938 41.96875 124.375 42.371094 C 125.289062 42.777344 126.066406 43.320312 126.703125 44 C 127.34375 44.683594 127.824219 45.449219 128.15625 46.304688 C 128.480469 47.15625 128.648438 48.023438 128.648438 48.902344 L 128.648438 49.367188 C 128.648438 50.246094 128.488281 51.109375 128.167969 51.957031 C 127.847656 52.800781 127.375 53.5625 126.746094 54.246094 C 126.117188 54.925781 125.34375 55.472656 124.429688 55.886719 C 123.515625 56.300781 122.453125 56.507812 121.246094 56.507812 Z M 121.238281 54.285156 C 122.273438 54.285156 123.15625 54.054688 123.890625 53.597656 C 124.625 53.140625 125.1875 52.523438 125.574219 51.746094 C 125.964844 50.972656 126.15625 50.101562 126.15625 49.132812 C 126.15625 48.167969 125.957031 47.269531 125.5625 46.496094 C 125.164062 45.71875 124.597656 45.109375 123.863281 44.660156 C 123.128906 44.210938 122.253906 43.988281 121.238281 43.988281 C 120.222656 43.988281 119.363281 44.210938 118.625 44.660156 C 117.882812 45.109375 117.3125 45.71875 116.917969 46.496094 C 116.519531 47.269531 116.320312 48.152344 116.320312 49.132812 C 116.320312 50.117188 116.511719 50.96875 116.902344 51.746094 C 117.292969 52.523438 117.851562 53.140625 118.585938 53.597656 C 119.316406 54.054688 120.203125 54.285156 121.238281 54.285156 Z M 121.238281 54.285156 " fill-opacity="1" fill-rule="nonzero"/><path fill="#ffffff" d="M 130.226562 56.042969 L 130.226562 42.222656 L 132.195312 42.222656 L 132.195312 48.148438 L 131.886719 48.148438 C 131.886719 46.789062 132.070312 45.632812 132.441406 44.695312 C 132.8125 43.757812 133.375 43.039062 134.136719 42.550781 C 134.894531 42.054688 135.851562 41.8125 137.007812 41.8125 L 137.113281 41.8125 C 138.855469 41.8125 140.144531 42.355469 140.980469 43.441406 C 141.816406 44.527344 142.234375 46.097656 142.234375 48.152344 L 142.234375 56.042969 L 139.75 56.042969 L 139.75 47.632812 C 139.75 46.5625 139.449219 45.707031 138.84375 45.058594 C 138.238281 44.414062 137.410156 44.089844 136.355469 44.089844 C 135.304688 44.089844 134.390625 44.425781 133.71875 45.097656 C 133.042969 45.769531 132.707031 46.667969 132.707031 47.789062 L 132.707031 56.042969 L 130.222656 56.042969 Z M 130.226562 56.042969 " fill-opacity="1" fill-rule="nonzero"/><path fill="#ffffff" d="M 150.207031 56.457031 C 148.394531 56.457031 146.992188 56.066406 146 55.292969 C 145.007812 54.515625 144.496094 53.457031 144.460938 52.109375 L 146.789062 52.109375 C 146.824219 52.644531 147.097656 53.148438 147.605469 53.625 C 148.113281 54.097656 148.980469 54.335938 150.207031 54.335938 C 151.308594 54.335938 152.15625 54.113281 152.742188 53.675781 C 153.328125 53.234375 153.621094 52.695312 153.621094 52.054688 C 153.621094 51.488281 153.40625 51.042969 152.972656 50.722656 C 152.542969 50.402344 151.84375 50.191406 150.878906 50.089844 L 149.378906 49.933594 C 148.066406 49.796875 146.996094 49.402344 146.167969 48.757812 C 145.339844 48.109375 144.925781 47.199219 144.925781 46.027344 C 144.925781 45.148438 145.148438 44.394531 145.601562 43.765625 C 146.050781 43.132812 146.671875 42.648438 147.460938 42.3125 C 148.257812 41.976562 149.171875 41.808594 150.207031 41.808594 C 151.757812 41.808594 153.019531 42.15625 153.984375 42.847656 C 154.953125 43.535156 155.449219 44.5625 155.484375 45.925781 L 153.15625 45.925781 C 153.136719 45.371094 152.882812 44.902344 152.390625 44.515625 C 151.902344 44.125 151.171875 43.933594 150.207031 43.933594 C 149.238281 43.933594 148.503906 44.128906 148.003906 44.527344 C 147.503906 44.921875 147.253906 45.425781 147.253906 46.027344 C 147.253906 46.546875 147.433594 46.960938 147.785156 47.269531 C 148.140625 47.582031 148.722656 47.777344 149.535156 47.867188 L 151.035156 48.019531 C 152.519531 48.175781 153.707031 48.585938 154.605469 49.25 C 155.503906 49.914062 155.953125 50.851562 155.953125 52.054688 C 155.953125 52.917969 155.707031 53.683594 155.214844 54.347656 C 154.722656 55.011719 154.042969 55.527344 153.179688 55.898438 C 152.320312 56.269531 151.328125 56.457031 150.207031 56.457031 Z M 150.207031 56.457031 " fill-opacity="1" fill-rule="nonzero"/><path fill="#ffffff" d="M 163.105469 56.457031 C 161.46875 56.457031 160.207031 55.921875 159.328125 54.851562 C 158.449219 53.78125 158.003906 52.238281 158.003906 50.21875 L 158.003906 42.199219 L 160.492188 42.199219 L 160.492188 50.710938 C 160.492188 51.796875 160.785156 52.648438 161.371094 53.261719 C 161.957031 53.875 162.75 54.179688 163.75 54.179688 C 164.75 54.179688 165.628906 53.847656 166.285156 53.183594 C 166.941406 52.519531 167.269531 51.609375 167.269531 50.453125 L 167.269531 42.203125 L 169.753906 42.203125 L 169.753906 56.042969 L 167.789062 56.042969 L 167.789062 50.117188 L 168.101562 50.117188 C 168.101562 51.480469 167.917969 52.632812 167.558594 53.574219 C 167.195312 54.515625 166.65625 55.230469 165.9375 55.71875 C 165.222656 56.210938 164.3125 56.457031 163.210938 56.457031 Z M 163.105469 56.457031 " fill-opacity="1" fill-rule="nonzero"/><path fill="#ffffff" d="M 171.113281 39.121094 L 171.113281 37.15625 L 175.511719 37.15625 L 175.511719 39.121094 Z M 173.027344 56.042969 L 173.027344 37.15625 L 175.511719 37.15625 L 175.511719 56.042969 Z M 173.027344 56.042969 " fill-opacity="1" fill-rule="nonzero"/><path fill="#ffffff" d="M 179.640625 44.089844 L 179.640625 42.226562 L 185.679688 42.226562 L 185.679688 44.089844 Z M 183.554688 56.199219 C 182.519531 56.199219 181.625 56.050781 180.875 55.757812 C 180.125 55.464844 179.546875 54.960938 179.144531 54.246094 C 178.738281 53.527344 178.535156 52.558594 178.535156 51.332031 L 178.535156 38.035156 L 180.917969 38.035156 L 180.917969 51.644531 C 180.917969 52.386719 181.121094 52.960938 181.523438 53.367188 C 181.929688 53.769531 182.503906 53.972656 183.246094 53.972656 L 185.679688 53.972656 L 185.679688 56.199219 Z M 183.554688 56.199219 " fill-opacity="1" fill-rule="nonzero"/><path fill="#ffffff" d="M 187.101562 44.191406 L 187.101562 42.226562 L 191.710938 42.226562 L 191.710938 44.191406 Z M 189.921875 40 C 189.371094 40 188.960938 39.855469 188.695312 39.5625 C 188.425781 39.269531 188.292969 38.898438 188.292969 38.449219 C 188.292969 38 188.425781 37.628906 188.695312 37.335938 C 188.960938 37.042969 189.371094 36.894531 189.921875 36.894531 C 190.476562 36.894531 190.886719 37.042969 191.152344 37.335938 C 191.417969 37.628906 191.554688 38 191.554688 38.449219 C 191.554688 38.898438 191.417969 39.269531 191.152344 39.5625 C 190.886719 39.855469 190.476562 40 189.921875 40 Z M 189.222656 56.042969 L 189.222656 42.222656 L 191.710938 42.222656 L 191.710938 56.042969 Z M 189.222656 56.042969 " fill-opacity="1" fill-rule="nonzero"/><path fill="#ffffff" d="M 194.296875 56.042969 L 194.296875 42.222656 L 196.265625 42.222656 L 196.265625 48.148438 L 195.957031 48.148438 C 195.957031 46.789062 196.140625 45.632812 196.511719 44.695312 C 196.882812 43.757812 197.445312 43.039062 198.207031 42.550781 C 198.964844 42.054688 199.921875 41.8125 201.078125 41.8125 L 201.183594 41.8125 C 202.925781 41.8125 204.214844 42.355469 205.050781 43.441406 C 205.886719 44.527344 206.304688 46.097656 206.304688 48.152344 L 206.304688 56.042969 L 203.820312 56.042969 L 203.820312 47.632812 C 203.820312 46.5625 203.519531 45.707031 202.914062 45.058594 C 202.308594 44.414062 201.480469 44.089844 200.425781 44.089844 C 199.375 44.089844 198.460938 44.425781 197.789062 45.097656 C 197.113281 45.769531 196.777344 46.667969 196.777344 47.789062 L 196.777344 56.042969 L 194.292969 56.042969 Z M 194.296875 56.042969 " fill-opacity="1" fill-rule="nonzero"/><path fill="#ffffff" d="M 214.316406 61.421875 C 213.675781 61.421875 213.035156 61.398438 212.386719 61.34375 C 211.738281 61.292969 211.121094 61.222656 210.535156 61.136719 L 210.535156 59.042969 C 211.15625 59.128906 211.808594 59.199219 212.488281 59.261719 C 213.171875 59.324219 213.8125 59.351562 214.417969 59.351562 C 215.675781 59.351562 216.683594 59.183594 217.433594 58.847656 C 218.183594 58.511719 218.726562 57.984375 219.0625 57.269531 C 219.398438 56.554688 219.566406 55.636719 219.566406 54.515625 L 219.566406 51.875 L 220.394531 49.90625 C 220.34375 51.304688 220.050781 52.464844 219.515625 53.386719 C 218.984375 54.3125 218.289062 55 217.433594 55.460938 C 216.578125 55.917969 215.632812 56.144531 214.601562 56.144531 C 213.632812 56.144531 212.75 55.957031 211.945312 55.589844 C 211.144531 55.21875 210.453125 54.703125 209.875 54.050781 C 209.296875 53.394531 208.847656 52.636719 208.527344 51.785156 C 208.210938 50.929688 208.050781 50.027344 208.050781 49.082031 L 208.050781 48.617188 C 208.050781 47.648438 208.214844 46.75 208.542969 45.914062 C 208.871094 45.074219 209.328125 44.347656 209.914062 43.726562 C 210.5 43.105469 211.203125 42.621094 212.023438 42.277344 C 212.84375 41.933594 213.746094 41.757812 214.730469 41.757812 C 215.886719 41.757812 216.90625 42.007812 217.785156 42.496094 C 218.664062 42.988281 219.359375 43.703125 219.867188 44.644531 C 220.375 45.582031 220.65625 46.734375 220.707031 48.097656 L 219.980469 48.121094 L 219.980469 42.222656 L 221.949219 42.222656 L 221.949219 54.40625 C 221.949219 56.066406 221.695312 57.402344 221.183594 58.433594 C 220.675781 59.457031 219.867188 60.214844 218.753906 60.695312 C 217.636719 61.179688 216.160156 61.421875 214.3125 61.421875 Z M 215.066406 53.871094 C 215.894531 53.871094 216.648438 53.6875 217.332031 53.328125 C 218.011719 52.964844 218.554688 52.441406 218.960938 51.757812 C 219.363281 51.078125 219.566406 50.265625 219.566406 49.316406 L 219.566406 48.125 C 219.566406 47.195312 219.355469 46.410156 218.933594 45.773438 C 218.507812 45.136719 217.964844 44.652344 217.289062 44.324219 C 216.617188 43.996094 215.882812 43.832031 215.089844 43.832031 C 214.191406 43.832031 213.398438 44.039062 212.707031 44.453125 C 212.015625 44.867188 211.480469 45.449219 211.101562 46.199219 C 210.722656 46.949219 210.53125 47.832031 210.53125 48.851562 C 210.53125 49.871094 210.726562 50.757812 211.113281 51.515625 C 211.503906 52.273438 212.035156 52.855469 212.71875 53.261719 C 213.398438 53.667969 214.179688 53.871094 215.0625 53.871094 Z M 215.066406 53.871094 " fill-opacity="1" fill-rule="nonzero"/><path fill="#ffffff" d="M 130.160156 33.777344 L 130.160156 29.222656 L 130.902344 29.222656 L 130.902344 33.777344 Z M 130.777344 32.296875 L 130.777344 31.644531 L 131.71875 31.644531 C 131.917969 31.644531 132.082031 31.605469 132.210938 31.53125 C 132.34375 31.453125 132.441406 31.347656 132.515625 31.214844 C 132.585938 31.082031 132.621094 30.929688 132.621094 30.757812 C 132.621094 30.589844 132.585938 30.429688 132.515625 30.296875 C 132.441406 30.164062 132.34375 30.058594 132.210938 29.984375 C 132.082031 29.910156 131.917969 29.871094 131.71875 29.871094 L 130.777344 29.871094 L 130.777344 29.21875 L 131.632812 29.21875 C 132.007812 29.21875 132.328125 29.28125 132.585938 29.402344 C 132.84375 29.523438 133.039062 29.695312 133.175781 29.914062 C 133.308594 30.136719 133.375 30.398438 133.375 30.707031 L 133.375 30.804688 C 133.375 31.105469 133.308594 31.367188 133.175781 31.59375 C 133.039062 31.816406 132.84375 31.988281 132.585938 32.109375 C 132.328125 32.230469 132.007812 32.292969 131.632812 32.292969 L 130.777344 32.292969 Z M 130.777344 32.296875 " fill-opacity="1" fill-rule="nonzero"/><path fill="#ffffff" d="M 134.128906 33.777344 L 134.128906 30.4375 L 134.703125 30.4375 L 134.703125 31.832031 L 134.679688 31.832031 C 134.679688 31.351562 134.785156 30.992188 134.996094 30.753906 C 135.207031 30.515625 135.515625 30.398438 135.929688 30.398438 L 136.050781 30.398438 L 136.050781 31.035156 L 135.824219 31.035156 C 135.511719 31.035156 135.269531 31.117188 135.101562 31.285156 C 134.933594 31.453125 134.851562 31.691406 134.851562 32 L 134.851562 33.777344 Z M 134.128906 33.777344 " fill-opacity="1" fill-rule="nonzero"/><path fill="#ffffff" d="M 138.234375 33.890625 C 137.9375 33.890625 137.679688 33.84375 137.457031 33.746094 C 137.234375 33.648438 137.046875 33.519531 136.894531 33.359375 C 136.742188 33.199219 136.625 33.015625 136.546875 32.808594 C 136.46875 32.605469 136.429688 32.394531 136.429688 32.175781 L 136.429688 32.050781 C 136.429688 31.832031 136.46875 31.617188 136.550781 31.410156 C 136.632812 31.203125 136.75 31.019531 136.90625 30.855469 C 137.058594 30.691406 137.25 30.5625 137.472656 30.46875 C 137.695312 30.375 137.949219 30.328125 138.234375 30.328125 C 138.519531 30.328125 138.773438 30.375 138.996094 30.46875 C 139.214844 30.5625 139.40625 30.695312 139.5625 30.855469 C 139.71875 31.019531 139.839844 31.203125 139.921875 31.410156 C 140 31.617188 140.042969 31.828125 140.042969 32.050781 L 140.042969 32.175781 C 140.042969 32.394531 140.003906 32.605469 139.925781 32.808594 C 139.847656 33.015625 139.730469 33.195312 139.578125 33.359375 C 139.425781 33.519531 139.238281 33.648438 139.011719 33.746094 C 138.789062 33.84375 138.53125 33.890625 138.238281 33.890625 Z M 138.234375 33.257812 C 138.460938 33.257812 138.652344 33.207031 138.816406 33.105469 C 138.976562 33.003906 139.097656 32.867188 139.183594 32.695312 C 139.269531 32.523438 139.308594 32.324219 139.308594 32.113281 C 139.308594 31.898438 139.265625 31.695312 139.179688 31.523438 C 139.089844 31.347656 138.96875 31.210938 138.804688 31.109375 C 138.644531 31.011719 138.453125 30.960938 138.230469 30.960938 C 138.007812 30.960938 137.8125 31.011719 137.652344 31.109375 C 137.492188 31.210938 137.367188 31.351562 137.28125 31.523438 C 137.191406 31.695312 137.152344 31.894531 137.152344 32.113281 C 137.152344 32.332031 137.191406 32.523438 137.277344 32.695312 C 137.363281 32.867188 137.484375 33.003906 137.644531 33.105469 C 137.808594 33.207031 138 33.257812 138.226562 33.257812 Z M 138.234375 33.257812 " fill-opacity="1" fill-rule="nonzero"/><path fill="#ffffff" d="M 142.316406 33.890625 C 142.03125 33.890625 141.785156 33.84375 141.570312 33.746094 C 141.355469 33.648438 141.179688 33.515625 141.042969 33.347656 C 140.90625 33.179688 140.800781 32.992188 140.734375 32.789062 C 140.664062 32.585938 140.632812 32.378906 140.632812 32.167969 L 140.632812 32.058594 C 140.632812 31.839844 140.664062 31.625 140.738281 31.421875 C 140.808594 31.21875 140.910156 31.03125 141.050781 30.867188 C 141.191406 30.703125 141.367188 30.570312 141.578125 30.472656 C 141.785156 30.378906 142.03125 30.328125 142.3125 30.328125 C 142.59375 30.328125 142.851562 30.382812 143.078125 30.488281 C 143.304688 30.597656 143.484375 30.75 143.621094 30.945312 C 143.757812 31.140625 143.835938 31.367188 143.851562 31.632812 L 143.152344 31.632812 C 143.125 31.445312 143.042969 31.289062 142.902344 31.160156 C 142.757812 31.03125 142.5625 30.964844 142.3125 30.964844 C 142.097656 30.964844 141.921875 31.015625 141.78125 31.117188 C 141.640625 31.214844 141.535156 31.351562 141.464844 31.523438 C 141.394531 31.691406 141.359375 31.890625 141.359375 32.113281 C 141.359375 32.335938 141.394531 32.523438 141.460938 32.695312 C 141.527344 32.871094 141.632812 33.007812 141.777344 33.105469 C 141.921875 33.203125 142.101562 33.253906 142.320312 33.253906 C 142.492188 33.253906 142.636719 33.226562 142.757812 33.164062 C 142.878906 33.105469 142.980469 33.027344 143.050781 32.925781 C 143.125 32.824219 143.167969 32.707031 143.183594 32.574219 L 143.890625 32.574219 C 143.878906 32.84375 143.800781 33.074219 143.660156 33.273438 C 143.519531 33.46875 143.332031 33.621094 143.101562 33.730469 C 142.867188 33.839844 142.609375 33.894531 142.320312 33.894531 Z M 142.316406 33.890625 " fill-opacity="1" fill-rule="nonzero"/><path fill="#ffffff" d="M 146.09375 33.890625 C 145.804688 33.890625 145.554688 33.84375 145.339844 33.742188 C 145.125 33.644531 144.945312 33.511719 144.8125 33.351562 C 144.675781 33.1875 144.570312 33.003906 144.503906 32.796875 C 144.4375 32.59375 144.402344 32.382812 144.402344 32.167969 L 144.402344 32.050781 C 144.402344 31.832031 144.4375 31.621094 144.503906 31.417969 C 144.570312 31.210938 144.675781 31.027344 144.8125 30.863281 C 144.945312 30.703125 145.121094 30.570312 145.328125 30.472656 C 145.539062 30.378906 145.78125 30.328125 146.058594 30.328125 C 146.417969 30.328125 146.714844 30.40625 146.957031 30.5625 C 147.199219 30.71875 147.378906 30.925781 147.496094 31.171875 C 147.617188 31.425781 147.675781 31.691406 147.675781 31.984375 L 147.675781 32.273438 L 144.710938 32.273438 L 144.710938 31.78125 L 147.1875 31.78125 L 146.988281 32.03125 C 146.988281 31.808594 146.953125 31.613281 146.882812 31.453125 C 146.8125 31.289062 146.707031 31.160156 146.570312 31.074219 C 146.4375 30.984375 146.261719 30.941406 146.058594 30.941406 C 145.851562 30.941406 145.664062 30.988281 145.519531 31.089844 C 145.375 31.1875 145.265625 31.324219 145.199219 31.5 C 145.125 31.675781 145.089844 31.878906 145.089844 32.113281 C 145.089844 32.335938 145.125 32.539062 145.199219 32.710938 C 145.269531 32.890625 145.378906 33.027344 145.527344 33.128906 C 145.675781 33.230469 145.863281 33.28125 146.097656 33.28125 C 146.328125 33.28125 146.519531 33.230469 146.667969 33.128906 C 146.816406 33.027344 146.90625 32.90625 146.941406 32.773438 L 147.617188 32.773438 C 147.570312 33 147.476562 33.199219 147.339844 33.367188 C 147.203125 33.539062 147.027344 33.667969 146.816406 33.757812 C 146.605469 33.851562 146.363281 33.894531 146.09375 33.894531 Z M 146.09375 33.890625 " fill-opacity="1" fill-rule="nonzero"/><path fill="#ffffff" d="M 149.613281 33.875 C 149.160156 33.875 148.8125 33.78125 148.558594 33.589844 C 148.308594 33.402344 148.179688 33.136719 148.167969 32.804688 L 148.835938 32.804688 C 148.84375 32.929688 148.90625 33.042969 149.03125 33.144531 C 149.148438 33.25 149.34375 33.300781 149.617188 33.300781 C 149.851562 33.300781 150.03125 33.253906 150.164062 33.164062 C 150.296875 33.074219 150.363281 32.957031 150.363281 32.824219 C 150.363281 32.699219 150.3125 32.601562 150.21875 32.527344 C 150.121094 32.457031 149.953125 32.40625 149.726562 32.382812 L 149.394531 32.351562 C 149.050781 32.316406 148.78125 32.214844 148.582031 32.046875 C 148.378906 31.882812 148.277344 31.660156 148.277344 31.378906 C 148.277344 31.15625 148.335938 30.964844 148.449219 30.8125 C 148.558594 30.664062 148.710938 30.546875 148.910156 30.460938 C 149.109375 30.378906 149.332031 30.339844 149.589844 30.339844 C 149.988281 30.339844 150.308594 30.425781 150.550781 30.601562 C 150.792969 30.777344 150.921875 31.035156 150.929688 31.375 L 150.265625 31.375 C 150.257812 31.246094 150.195312 31.140625 150.085938 31.054688 C 149.972656 30.964844 149.808594 30.921875 149.589844 30.921875 C 149.382812 30.921875 149.222656 30.964844 149.113281 31.046875 C 149.003906 31.128906 148.953125 31.234375 148.953125 31.363281 C 148.953125 31.476562 148.992188 31.570312 149.074219 31.632812 C 149.160156 31.699219 149.292969 31.742188 149.476562 31.765625 L 149.808594 31.792969 C 150.183594 31.835938 150.480469 31.9375 150.703125 32.105469 C 150.921875 32.273438 151.035156 32.507812 151.035156 32.804688 C 151.035156 33.019531 150.972656 33.207031 150.855469 33.367188 C 150.734375 33.53125 150.570312 33.652344 150.355469 33.742188 C 150.140625 33.832031 149.894531 33.875 149.613281 33.875 Z M 149.613281 33.875 " fill-opacity="1" fill-rule="nonzero"/><path fill="#ffffff" d="M 152.980469 33.875 C 152.527344 33.875 152.179688 33.78125 151.925781 33.589844 C 151.675781 33.402344 151.546875 33.136719 151.535156 32.804688 L 152.203125 32.804688 C 152.210938 32.929688 152.273438 33.042969 152.398438 33.144531 C 152.515625 33.25 152.710938 33.300781 152.984375 33.300781 C 153.21875 33.300781 153.398438 33.253906 153.53125 33.164062 C 153.664062 33.074219 153.730469 32.957031 153.730469 32.824219 C 153.730469 32.699219 153.679688 32.601562 153.585938 32.527344 C 153.488281 32.457031 153.320312 32.40625 153.089844 32.382812 L 152.761719 32.351562 C 152.417969 32.316406 152.148438 32.214844 151.949219 32.046875 C 151.746094 31.882812 151.644531 31.660156 151.644531 31.378906 C 151.644531 31.15625 151.703125 30.964844 151.8125 30.8125 C 151.925781 30.664062 152.078125 30.546875 152.277344 30.460938 C 152.476562 30.378906 152.699219 30.339844 152.957031 30.339844 C 153.355469 30.339844 153.675781 30.425781 153.917969 30.601562 C 154.160156 30.777344 154.289062 31.035156 154.296875 31.375 L 153.632812 31.375 C 153.625 31.246094 153.5625 31.140625 153.453125 31.054688 C 153.339844 30.964844 153.175781 30.921875 152.957031 30.921875 C 152.75 30.921875 152.589844 30.964844 152.480469 31.046875 C 152.371094 31.128906 152.320312 31.234375 152.320312 31.363281 C 152.320312 31.476562 152.359375 31.570312 152.441406 31.632812 C 152.527344 31.699219 152.660156 31.742188 152.84375 31.765625 L 153.175781 31.792969 C 153.550781 31.835938 153.847656 31.9375 154.070312 32.105469 C 154.289062 32.273438 154.402344 32.507812 154.402344 32.804688 C 154.402344 33.019531 154.339844 33.207031 154.222656 33.367188 C 154.101562 33.53125 153.9375 33.652344 153.722656 33.742188 C 153.507812 33.832031 153.261719 33.875 152.980469 33.875 Z M 152.980469 33.875 " fill-opacity="1" fill-rule="nonzero"/><path fill="#ffffff" d="M 155.007812 32.902344 L 155.851562 32.902344 L 155.851562 33.777344 L 155.007812 33.777344 Z M 155.007812 32.902344 " fill-opacity="1" fill-rule="nonzero"/><path fill="#ffffff" d="M 157.785156 29.910156 L 157.785156 29.25 L 161.214844 29.25 L 161.214844 29.910156 Z M 159.125 33.777344 L 159.125 29.785156 L 159.867188 29.785156 L 159.867188 33.777344 Z M 159.125 33.777344 " fill-opacity="1" fill-rule="nonzero"/><path fill="#ffffff" d="M 162.949219 33.890625 C 162.660156 33.890625 162.410156 33.84375 162.191406 33.742188 C 161.976562 33.644531 161.800781 33.511719 161.664062 33.351562 C 161.527344 33.1875 161.425781 33.003906 161.359375 32.796875 C 161.289062 32.59375 161.257812 32.382812 161.257812 32.167969 L 161.257812 32.050781 C 161.257812 31.832031 161.292969 31.621094 161.359375 31.417969 C 161.425781 31.210938 161.527344 31.027344 161.664062 30.863281 C 161.800781 30.703125 161.972656 30.570312 162.183594 30.472656 C 162.390625 30.378906 162.632812 30.328125 162.914062 30.328125 C 163.273438 30.328125 163.570312 30.40625 163.8125 30.5625 C 164.050781 30.71875 164.230469 30.925781 164.351562 31.171875 C 164.46875 31.425781 164.53125 31.691406 164.53125 31.984375 L 164.53125 32.273438 L 161.566406 32.273438 L 161.566406 31.78125 L 164.039062 31.78125 L 163.84375 32.03125 C 163.84375 31.808594 163.808594 31.613281 163.738281 31.453125 C 163.664062 31.289062 163.5625 31.160156 163.425781 31.074219 C 163.289062 30.984375 163.117188 30.941406 162.914062 30.941406 C 162.707031 30.941406 162.515625 30.988281 162.375 31.089844 C 162.230469 31.1875 162.121094 31.324219 162.050781 31.5 C 161.980469 31.675781 161.945312 31.878906 161.945312 32.113281 C 161.945312 32.335938 161.980469 32.539062 162.050781 32.710938 C 162.125 32.890625 162.230469 33.027344 162.378906 33.128906 C 162.53125 33.230469 162.71875 33.28125 162.953125 33.28125 C 163.183594 33.28125 163.371094 33.230469 163.523438 33.128906 C 163.671875 33.027344 163.761719 32.90625 163.792969 32.773438 L 164.46875 32.773438 C 164.425781 33 164.332031 33.199219 164.195312 33.367188 C 164.054688 33.539062 163.882812 33.667969 163.667969 33.757812 C 163.457031 33.851562 163.21875 33.894531 162.949219 33.894531 Z M 162.949219 33.890625 " fill-opacity="1" fill-rule="nonzero"/><path fill="#ffffff" d="M 166.761719 33.890625 C 166.476562 33.890625 166.230469 33.84375 166.015625 33.746094 C 165.800781 33.648438 165.625 33.515625 165.488281 33.347656 C 165.351562 33.179688 165.246094 32.992188 165.175781 32.789062 C 165.109375 32.585938 165.074219 32.378906 165.074219 32.167969 L 165.074219 32.058594 C 165.074219 31.839844 165.109375 31.625 165.183594 31.421875 C 165.253906 31.21875 165.355469 31.03125 165.496094 30.867188 C 165.636719 30.703125 165.8125 30.570312 166.023438 30.472656 C 166.230469 30.378906 166.476562 30.328125 166.757812 30.328125 C 167.035156 30.328125 167.296875 30.382812 167.523438 30.488281 C 167.75 30.597656 167.925781 30.75 168.066406 30.945312 C 168.203125 31.140625 168.28125 31.367188 168.296875 31.632812 L 167.597656 31.632812 C 167.570312 31.445312 167.488281 31.289062 167.34375 31.160156 C 167.203125 31.03125 167.007812 30.964844 166.757812 30.964844 C 166.542969 30.964844 166.363281 31.015625 166.222656 31.117188 C 166.085938 31.214844 165.976562 31.351562 165.910156 31.523438 C 165.835938 31.691406 165.804688 31.890625 165.804688 32.113281 C 165.804688 32.335938 165.835938 32.523438 165.90625 32.695312 C 165.972656 32.871094 166.078125 33.007812 166.222656 33.105469 C 166.363281 33.203125 166.542969 33.253906 166.765625 33.253906 C 166.9375 33.253906 167.082031 33.226562 167.203125 33.164062 C 167.324219 33.105469 167.421875 33.027344 167.496094 32.925781 C 167.570312 32.824219 167.613281 32.707031 167.628906 32.574219 L 168.335938 32.574219 C 168.324219 32.84375 168.246094 33.074219 168.105469 33.273438 C 167.964844 33.46875 167.777344 33.621094 167.546875 33.730469 C 167.3125 33.839844 167.054688 33.894531 166.765625 33.894531 Z M 166.761719 33.890625 " fill-opacity="1" fill-rule="nonzero"/><path fill="#ffffff" d="M 169.082031 33.777344 L 169.082031 29.253906 L 169.808594 29.253906 L 169.808594 31.925781 L 169.660156 31.925781 C 169.660156 31.59375 169.699219 31.3125 169.785156 31.074219 C 169.871094 30.835938 170 30.65625 170.175781 30.527344 C 170.351562 30.402344 170.574219 30.339844 170.84375 30.339844 L 170.875 30.339844 C 171.265625 30.339844 171.5625 30.472656 171.761719 30.738281 C 171.960938 31.003906 172.0625 31.382812 172.0625 31.878906 L 172.0625 33.78125 L 171.339844 33.78125 L 171.339844 31.773438 C 171.339844 31.535156 171.269531 31.347656 171.132812 31.207031 C 170.992188 31.066406 170.8125 31 170.59375 31 C 170.359375 31 170.167969 31.078125 170.023438 31.234375 C 169.878906 31.390625 169.808594 31.597656 169.808594 31.855469 L 169.808594 33.78125 L 169.082031 33.78125 Z M 169.082031 33.777344 " fill-opacity="1" fill-rule="nonzero"/><path fill="#ffffff" d="M 173.074219 33.777344 L 173.074219 30.4375 L 173.652344 30.4375 L 173.652344 31.867188 L 173.585938 31.867188 C 173.585938 31.535156 173.628906 31.257812 173.71875 31.03125 C 173.808594 30.804688 173.941406 30.628906 174.125 30.511719 C 174.304688 30.394531 174.53125 30.335938 174.800781 30.335938 L 174.828125 30.335938 C 175.246094 30.335938 175.550781 30.46875 175.753906 30.726562 C 175.957031 30.988281 176.058594 31.367188 176.058594 31.867188 L 176.058594 33.777344 L 175.332031 33.777344 L 175.332031 31.769531 C 175.332031 31.539062 175.265625 31.351562 175.132812 31.207031 C 175 31.066406 174.820312 30.992188 174.589844 30.992188 C 174.359375 30.992188 174.164062 31.066406 174.015625 31.214844 C 173.871094 31.363281 173.800781 31.558594 173.800781 31.800781 L 173.800781 33.78125 L 173.074219 33.78125 Z M 173.074219 33.777344 " fill-opacity="1" fill-rule="nonzero"/><path fill="#ffffff" d="M 178.640625 33.890625 C 178.34375 33.890625 178.085938 33.84375 177.863281 33.746094 C 177.640625 33.648438 177.453125 33.519531 177.300781 33.359375 C 177.148438 33.199219 177.03125 33.015625 176.953125 32.808594 C 176.875 32.605469 176.835938 32.394531 176.835938 32.175781 L 176.835938 32.050781 C 176.835938 31.832031 176.875 31.617188 176.957031 31.410156 C 177.035156 31.203125 177.15625 31.019531 177.3125 30.855469 C 177.464844 30.691406 177.65625 30.5625 177.878906 30.46875 C 178.101562 30.375 178.355469 30.328125 178.640625 30.328125 C 178.925781 30.328125 179.179688 30.375 179.402344 30.46875 C 179.621094 30.5625 179.808594 30.695312 179.96875 30.855469 C 180.125 31.019531 180.246094 31.203125 180.324219 31.410156 C 180.40625 31.617188 180.449219 31.828125 180.449219 32.050781 L 180.449219 32.175781 C 180.449219 32.394531 180.410156 32.605469 180.332031 32.808594 C 180.253906 33.015625 180.136719 33.195312 179.984375 33.359375 C 179.832031 33.519531 179.640625 33.648438 179.417969 33.746094 C 179.195312 33.84375 178.9375 33.890625 178.644531 33.890625 Z M 178.640625 33.257812 C 178.867188 33.257812 179.058594 33.207031 179.222656 33.105469 C 179.382812 33.003906 179.503906 32.867188 179.589844 32.695312 C 179.675781 32.523438 179.714844 32.324219 179.714844 32.113281 C 179.714844 31.898438 179.671875 31.695312 179.585938 31.523438 C 179.496094 31.347656 179.375 31.210938 179.210938 31.109375 C 179.050781 31.011719 178.859375 30.960938 178.636719 30.960938 C 178.414062 30.960938 178.21875 31.011719 178.058594 31.109375 C 177.898438 31.210938 177.773438 31.351562 177.6875 31.523438 C 177.597656 31.695312 177.558594 31.894531 177.558594 32.113281 C 177.558594 32.332031 177.597656 32.523438 177.683594 32.695312 C 177.769531 32.867188 177.890625 33.003906 178.050781 33.105469 C 178.214844 33.207031 178.40625 33.257812 178.632812 33.257812 Z M 178.640625 33.257812 " fill-opacity="1" fill-rule="nonzero"/><path fill="#ffffff" d="M 180.871094 29.8125 L 180.871094 29.253906 L 182.039062 29.253906 L 182.039062 29.8125 Z M 181.308594 33.777344 L 181.308594 29.253906 L 182.039062 29.253906 L 182.039062 33.78125 L 181.308594 33.78125 Z M 181.308594 33.777344 " fill-opacity="1" fill-rule="nonzero"/><path fill="#ffffff" d="M 184.679688 33.890625 C 184.382812 33.890625 184.125 33.84375 183.902344 33.746094 C 183.679688 33.648438 183.492188 33.519531 183.339844 33.359375 C 183.1875 33.199219 183.070312 33.015625 182.992188 32.808594 C 182.914062 32.605469 182.875 32.394531 182.875 32.175781 L 182.875 32.050781 C 182.875 31.832031 182.914062 31.617188 182.996094 31.410156 C 183.078125 31.203125 183.195312 31.019531 183.351562 30.855469 C 183.503906 30.691406 183.695312 30.5625 183.917969 30.46875 C 184.140625 30.375 184.394531 30.328125 184.679688 30.328125 C 184.964844 30.328125 185.21875 30.375 185.441406 30.46875 C 185.660156 30.5625 185.851562 30.695312 186.007812 30.855469 C 186.164062 31.019531 186.285156 31.203125 186.363281 31.410156 C 186.445312 31.617188 186.488281 31.828125 186.488281 32.050781 L 186.488281 32.175781 C 186.488281 32.394531 186.449219 32.605469 186.371094 32.808594 C 186.292969 33.015625 186.175781 33.195312 186.023438 33.359375 C 185.871094 33.519531 185.683594 33.648438 185.457031 33.746094 C 185.234375 33.84375 184.976562 33.890625 184.683594 33.890625 Z M 184.679688 33.257812 C 184.90625 33.257812 185.097656 33.207031 185.261719 33.105469 C 185.421875 33.003906 185.542969 32.867188 185.628906 32.695312 C 185.714844 32.523438 185.753906 32.324219 185.753906 32.113281 C 185.753906 31.898438 185.710938 31.695312 185.625 31.523438 C 185.535156 31.347656 185.414062 31.210938 185.25 31.109375 C 185.089844 31.011719 184.898438 30.960938 184.675781 30.960938 C 184.453125 30.960938 184.257812 31.011719 184.097656 31.109375 C 183.9375 31.210938 183.8125 31.351562 183.726562 31.523438 C 183.636719 31.695312 183.597656 31.894531 183.597656 32.113281 C 183.597656 32.332031 183.636719 32.523438 183.722656 32.695312 C 183.808594 32.867188 183.929688 33.003906 184.089844 33.105469 C 184.253906 33.207031 184.445312 33.257812 184.671875 33.257812 Z M 184.679688 33.257812 " fill-opacity="1" fill-rule="nonzero"/><path fill="#ffffff" d="M 188.589844 35.085938 C 188.433594 35.085938 188.277344 35.082031 188.113281 35.070312 C 187.953125 35.058594 187.800781 35.042969 187.660156 35.019531 L 187.660156 34.40625 C 187.8125 34.425781 187.96875 34.445312 188.136719 34.457031 C 188.304688 34.472656 188.457031 34.480469 188.601562 34.480469 C 188.890625 34.480469 189.125 34.445312 189.300781 34.371094 C 189.476562 34.296875 189.605469 34.179688 189.683594 34.023438 C 189.765625 33.871094 189.804688 33.667969 189.804688 33.417969 L 189.804688 32.773438 L 190 32.328125 C 189.988281 32.652344 189.917969 32.921875 189.796875 33.140625 C 189.675781 33.359375 189.515625 33.523438 189.3125 33.636719 C 189.113281 33.746094 188.882812 33.804688 188.628906 33.804688 C 188.394531 33.804688 188.1875 33.757812 187.996094 33.671875 C 187.804688 33.585938 187.644531 33.460938 187.503906 33.304688 C 187.367188 33.148438 187.261719 32.96875 187.1875 32.761719 C 187.113281 32.558594 187.078125 32.339844 187.078125 32.109375 L 187.078125 31.992188 C 187.078125 31.757812 187.117188 31.539062 187.191406 31.335938 C 187.265625 31.132812 187.375 30.953125 187.515625 30.804688 C 187.65625 30.652344 187.824219 30.539062 188.023438 30.457031 C 188.21875 30.371094 188.433594 30.332031 188.671875 30.332031 C 188.941406 30.332031 189.183594 30.390625 189.394531 30.507812 C 189.605469 30.625 189.765625 30.796875 189.886719 31.027344 C 190.007812 31.253906 190.070312 31.53125 190.078125 31.855469 L 189.917969 31.875 L 189.917969 30.4375 L 190.496094 30.4375 L 190.496094 33.382812 C 190.496094 33.785156 190.433594 34.113281 190.300781 34.363281 C 190.167969 34.617188 189.964844 34.796875 189.6875 34.914062 C 189.40625 35.03125 189.042969 35.089844 188.589844 35.089844 Z M 188.808594 33.160156 C 188.988281 33.160156 189.15625 33.121094 189.304688 33.035156 C 189.457031 32.957031 189.578125 32.839844 189.664062 32.691406 C 189.753906 32.539062 189.800781 32.359375 189.800781 32.148438 L 189.800781 31.894531 C 189.800781 31.6875 189.753906 31.511719 189.660156 31.367188 C 189.566406 31.226562 189.445312 31.117188 189.296875 31.042969 C 189.144531 30.972656 188.984375 30.929688 188.8125 30.929688 C 188.613281 30.929688 188.4375 30.976562 188.285156 31.070312 C 188.132812 31.164062 188.011719 31.296875 187.929688 31.464844 C 187.84375 31.632812 187.800781 31.828125 187.800781 32.050781 C 187.800781 32.273438 187.84375 32.476562 187.929688 32.640625 C 188.019531 32.808594 188.136719 32.9375 188.285156 33.027344 C 188.4375 33.113281 188.609375 33.160156 188.804688 33.160156 Z M 188.808594 33.160156 " fill-opacity="1" fill-rule="nonzero"/><path fill="#ffffff" d="M 192.210938 33.703125 L 191.078125 30.4375 L 191.816406 30.4375 L 192.902344 33.703125 Z M 191.363281 35.085938 L 191.363281 34.449219 L 191.914062 34.449219 C 192.042969 34.449219 192.152344 34.429688 192.242188 34.402344 C 192.335938 34.371094 192.410156 34.316406 192.464844 34.242188 C 192.523438 34.164062 192.574219 34.0625 192.609375 33.933594 L 193.582031 30.4375 L 194.28125 30.4375 L 193.226562 34.109375 C 193.160156 34.339844 193.070312 34.527344 192.953125 34.671875 C 192.835938 34.816406 192.683594 34.921875 192.503906 34.988281 C 192.328125 35.054688 192.109375 35.085938 191.855469 35.085938 Z M 192.390625 33.703125 L 192.390625 33.113281 L 193.109375 33.113281 L 193.109375 33.703125 Z M 192.390625 33.703125 " fill-opacity="1" fill-rule="nonzero"/><path fill="#ffffff" d="M 194.605469 32.902344 L 195.449219 32.902344 L 195.449219 33.777344 L 194.605469 33.777344 Z M 194.605469 32.902344 " fill-opacity="1" fill-rule="nonzero"/><path fill="#ffffff" d="M 197.835938 33.804688 L 197.835938 29.222656 L 198.578125 29.222656 L 198.578125 33.804688 Z M 198.457031 33.804688 L 198.457031 33.113281 L 199.492188 33.113281 C 199.742188 33.113281 199.96875 33.074219 200.167969 32.992188 C 200.367188 32.914062 200.535156 32.800781 200.675781 32.65625 C 200.816406 32.511719 200.921875 32.339844 200.996094 32.144531 C 201.070312 31.949219 201.105469 31.738281 201.105469 31.507812 C 201.105469 31.265625 201.066406 31.046875 200.996094 30.851562 C 200.925781 30.65625 200.816406 30.488281 200.675781 30.347656 C 200.535156 30.210938 200.367188 30.101562 200.167969 30.023438 C 199.96875 29.949219 199.742188 29.910156 199.492188 29.910156 L 198.457031 29.910156 L 198.457031 29.222656 L 199.429688 29.222656 C 199.839844 29.222656 200.195312 29.285156 200.5 29.410156 C 200.804688 29.53125 201.054688 29.699219 201.257812 29.910156 C 201.460938 30.121094 201.613281 30.359375 201.710938 30.625 C 201.8125 30.886719 201.863281 31.160156 201.863281 31.441406 L 201.863281 31.574219 C 201.863281 31.839844 201.8125 32.105469 201.710938 32.371094 C 201.613281 32.640625 201.460938 32.878906 201.257812 33.089844 C 201.054688 33.304688 200.804688 33.472656 200.5 33.605469 C 200.195312 33.734375 199.839844 33.800781 199.429688 33.800781 L 198.457031 33.800781 Z M 198.457031 33.804688 " fill-opacity="1" fill-rule="nonzero"/><path fill="#ffffff" d="M 204.101562 33.890625 C 203.8125 33.890625 203.5625 33.84375 203.347656 33.742188 C 203.132812 33.644531 202.953125 33.511719 202.820312 33.351562 C 202.683594 33.1875 202.578125 33.003906 202.511719 32.796875 C 202.445312 32.59375 202.410156 32.382812 202.410156 32.167969 L 202.410156 32.050781 C 202.410156 31.832031 202.445312 31.621094 202.511719 31.417969 C 202.578125 31.210938 202.683594 31.027344 202.820312 30.863281 C 202.953125 30.703125 203.128906 30.570312 203.335938 30.472656 C 203.546875 30.378906 203.789062 30.328125 204.066406 30.328125 C 204.425781 30.328125 204.726562 30.40625 204.964844 30.5625 C 205.207031 30.71875 205.386719 30.925781 205.503906 31.171875 C 205.625 31.425781 205.683594 31.691406 205.683594 31.984375 L 205.683594 32.273438 L 202.71875 32.273438 L 202.71875 31.78125 L 205.195312 31.78125 L 204.996094 32.03125 C 204.996094 31.808594 204.960938 31.613281 204.890625 31.453125 C 204.820312 31.289062 204.714844 31.160156 204.578125 31.074219 C 204.445312 30.984375 204.269531 30.941406 204.066406 30.941406 C 203.863281 30.941406 203.671875 30.988281 203.527344 31.089844 C 203.382812 31.1875 203.273438 31.324219 203.207031 31.5 C 203.132812 31.675781 203.101562 31.878906 203.101562 32.113281 C 203.101562 32.335938 203.132812 32.539062 203.207031 32.710938 C 203.277344 32.890625 203.386719 33.027344 203.535156 33.128906 C 203.683594 33.230469 203.875 33.28125 204.105469 33.28125 C 204.339844 33.28125 204.527344 33.230469 204.675781 33.128906 C 204.824219 33.027344 204.914062 32.90625 204.949219 32.773438 L 205.625 32.773438 C 205.578125 33 205.488281 33.199219 205.347656 33.367188 C 205.210938 33.539062 205.035156 33.667969 204.824219 33.757812 C 204.613281 33.851562 204.371094 33.894531 204.101562 33.894531 Z M 204.101562 33.890625 " fill-opacity="1" fill-rule="nonzero"/><path fill="#ffffff" d="M 207.128906 33.777344 L 206.039062 30.4375 L 206.796875 30.4375 L 207.851562 33.777344 Z M 207.335938 33.777344 L 207.335938 33.1875 L 208.148438 33.1875 L 208.148438 33.777344 Z M 207.644531 33.777344 L 208.5625 30.4375 L 209.269531 30.4375 L 208.320312 33.777344 Z M 207.644531 33.777344 " fill-opacity="1" fill-rule="nonzero"/><path fill="#ffffff" d="M 212.140625 33.890625 C 211.730469 33.890625 211.378906 33.820312 211.082031 33.675781 C 210.789062 33.535156 210.542969 33.34375 210.351562 33.109375 C 210.152344 32.875 210.011719 32.621094 209.917969 32.347656 C 209.828125 32.078125 209.777344 31.820312 209.777344 31.570312 L 209.777344 31.433594 C 209.777344 31.164062 209.828125 30.890625 209.925781 30.617188 C 210.019531 30.34375 210.167969 30.09375 210.363281 29.867188 C 210.558594 29.644531 210.804688 29.464844 211.101562 29.324219 C 211.398438 29.191406 211.746094 29.121094 212.140625 29.121094 C 212.535156 29.121094 212.882812 29.191406 213.175781 29.324219 C 213.46875 29.460938 213.714844 29.644531 213.914062 29.867188 C 214.113281 30.09375 214.261719 30.34375 214.355469 30.617188 C 214.453125 30.886719 214.5 31.160156 214.5 31.433594 L 214.5 31.570312 C 214.5 31.820312 214.453125 32.078125 214.359375 32.347656 C 214.265625 32.621094 214.121094 32.875 213.929688 33.109375 C 213.734375 33.34375 213.492188 33.535156 213.195312 33.675781 C 212.898438 33.820312 212.546875 33.890625 212.140625 33.890625 Z M 212.140625 33.203125 C 212.390625 33.203125 212.613281 33.15625 212.808594 33.066406 C 213.007812 32.976562 213.179688 32.851562 213.320312 32.695312 C 213.460938 32.535156 213.566406 32.359375 213.636719 32.15625 C 213.710938 31.953125 213.746094 31.738281 213.746094 31.511719 C 213.746094 31.273438 213.710938 31.050781 213.636719 30.84375 C 213.5625 30.640625 213.453125 30.460938 213.316406 30.304688 C 213.179688 30.152344 213.011719 30.03125 212.808594 29.941406 C 212.613281 29.855469 212.390625 29.8125 212.140625 29.8125 C 211.890625 29.8125 211.667969 29.855469 211.46875 29.941406 C 211.273438 30.03125 211.101562 30.148438 210.960938 30.304688 C 210.820312 30.460938 210.714844 30.640625 210.640625 30.84375 C 210.566406 31.050781 210.535156 31.269531 210.535156 31.511719 C 210.535156 31.738281 210.570312 31.953125 210.640625 32.15625 C 210.714844 32.359375 210.820312 32.539062 210.960938 32.695312 C 211.101562 32.851562 211.273438 32.976562 211.46875 33.066406 C 211.667969 33.160156 211.890625 33.203125 212.140625 33.203125 Z M 212.140625 33.203125 " fill-opacity="1" fill-rule="nonzero"/><path fill="#ffffff" d="M 215.351562 35.019531 L 215.351562 30.4375 L 215.929688 30.4375 L 215.929688 31.882812 L 215.816406 31.875 C 215.839844 31.523438 215.914062 31.234375 216.042969 31.007812 C 216.171875 30.78125 216.339844 30.613281 216.550781 30.5 C 216.761719 30.386719 216.992188 30.332031 217.246094 30.332031 C 217.5 30.332031 217.703125 30.375 217.894531 30.464844 C 218.089844 30.554688 218.257812 30.675781 218.398438 30.832031 C 218.539062 30.988281 218.644531 31.171875 218.71875 31.378906 C 218.792969 31.585938 218.828125 31.808594 218.828125 32.046875 L 218.828125 32.164062 C 218.828125 32.398438 218.789062 32.621094 218.714844 32.832031 C 218.640625 33.042969 218.535156 33.222656 218.394531 33.378906 C 218.253906 33.535156 218.085938 33.660156 217.890625 33.753906 C 217.695312 33.84375 217.480469 33.886719 217.242188 33.886719 C 217 33.886719 216.769531 33.835938 216.558594 33.734375 C 216.347656 33.628906 216.175781 33.464844 216.039062 33.238281 C 215.902344 33.011719 215.828125 32.71875 215.808594 32.355469 L 216.082031 32.8125 L 216.082031 35.019531 Z M 217.082031 33.265625 C 217.285156 33.265625 217.464844 33.214844 217.617188 33.121094 C 217.769531 33.023438 217.890625 32.886719 217.976562 32.710938 C 218.058594 32.535156 218.101562 32.332031 218.101562 32.105469 C 218.101562 31.878906 218.058594 31.675781 217.976562 31.503906 C 217.890625 31.328125 217.773438 31.195312 217.621094 31.097656 C 217.46875 31 217.292969 30.953125 217.085938 30.953125 C 216.90625 30.953125 216.734375 30.992188 216.578125 31.078125 C 216.421875 31.160156 216.292969 31.277344 216.199219 31.433594 C 216.101562 31.585938 216.054688 31.773438 216.054688 31.996094 L 216.054688 32.261719 C 216.054688 32.472656 216.101562 32.652344 216.199219 32.804688 C 216.296875 32.953125 216.425781 33.070312 216.582031 33.148438 C 216.738281 33.226562 216.90625 33.265625 217.082031 33.265625 Z M 217.082031 33.265625 " fill-opacity="1" fill-rule="nonzero"/><g clip-path="url(#2a7976c0ba)"><path fill="#ffffff" d="M 220.808594 33.875 C 220.359375 33.875 220.007812 33.78125 219.757812 33.589844 C 219.507812 33.402344 219.375 33.136719 219.363281 32.804688 L 220.035156 32.804688 C 220.042969 32.929688 220.105469 33.042969 220.226562 33.144531 C 220.347656 33.25 220.542969 33.300781 220.816406 33.300781 C 221.050781 33.300781 221.230469 33.253906 221.363281 33.164062 C 221.492188 33.074219 221.558594 32.957031 221.558594 32.824219 C 221.558594 32.699219 221.511719 32.601562 221.414062 32.527344 C 221.320312 32.457031 221.152344 32.40625 220.921875 32.382812 L 220.59375 32.351562 C 220.25 32.316406 219.980469 32.214844 219.777344 32.046875 C 219.578125 31.882812 219.476562 31.660156 219.476562 31.378906 C 219.476562 31.15625 219.53125 30.964844 219.644531 30.8125 C 219.757812 30.664062 219.910156 30.546875 220.109375 30.460938 C 220.304688 30.378906 220.53125 30.339844 220.789062 30.339844 C 221.183594 30.339844 221.503906 30.425781 221.75 30.601562 C 221.992188 30.777344 222.121094 31.035156 222.125 31.375 L 221.464844 31.375 C 221.453125 31.246094 221.394531 31.140625 221.285156 31.054688 C 221.171875 30.964844 221.003906 30.921875 220.789062 30.921875 C 220.578125 30.921875 220.421875 30.964844 220.3125 31.046875 C 220.203125 31.128906 220.148438 31.234375 220.148438 31.363281 C 220.148438 31.476562 220.191406 31.570312 220.273438 31.632812 C 220.355469 31.699219 220.492188 31.742188 220.675781 31.765625 L 221.003906 31.792969 C 221.382812 31.835938 221.679688 31.9375 221.902344 32.105469 C 222.121094 32.273438 222.234375 32.507812 222.234375 32.804688 C 222.234375 33.019531 222.171875 33.207031 222.054688 33.367188 C 221.933594 33.53125 221.769531 33.652344 221.554688 33.742188 C 221.339844 33.832031 221.09375 33.875 220.8125 33.875 Z M 220.808594 33.875 " fill-opacity="1" fill-rule="nonzero"/></g><g clip-path="url(#03146f92ff)"><path fill="#7bd100" d="M 48.324219 45.019531 C 48.324219 54.398438 40.851562 62.027344 31.542969 62.269531 L 31.542969 52.726562 C 31.542969 50.371094 31.914062 48.039062 32.605469 45.839844 C 33.773438 42.101562 36.398438 38.976562 39.8125 37.097656 L 42.121094 35.796875 L 36.660156 35.796875 C 26.085938 35.796875 17.527344 44.359375 17.527344 54.929688 L 17.527344 55.722656 C 15.167969 52.78125 13.789062 49.070312 13.789062 45.019531 C 13.789062 35.476562 21.527344 27.769531 31.070312 27.769531 C 40.609375 27.769531 48.324219 35.476562 48.324219 45.019531 Z M 48.324219 45.019531 " fill-opacity="1" fill-rule="nonzero"/></g></svg>