<svg width="150" height="50" viewBox="0 0 150 50" fill="none" xmlns="http://www.w3.org/2000/svg">
<g clip-path="url(#clip0_1403_1216)">
<path d="M52.9933 21.5733C51.9798 21.5733 50.9663 21.4286 50.0975 20.9942C49.2288 20.5598 48.5049 20.1255 47.7809 19.4015C47.057 18.6776 46.6226 17.9537 46.3331 17.0849C46.0435 16.2162 45.7539 15.2027 45.7539 14.0444C45.7539 13.0309 45.8987 12.0174 46.3331 11.1486C46.6226 10.2799 47.2018 9.55597 47.7809 8.83203C48.3601 8.10809 49.084 7.67373 49.9527 7.23937C50.8215 6.80501 51.6902 6.66022 52.7037 6.66022C53.7172 6.66022 54.586 6.80501 55.3099 7.23937C56.1786 7.52894 56.7578 8.10809 57.4817 8.68724C58.0609 9.26639 58.4952 10.1351 58.7848 11.0038C59.0744 11.8726 59.2192 12.8861 59.2192 13.8996V14.7683H48.9392C49.084 15.6371 49.2288 16.361 49.6632 16.9401C50.0975 17.5193 50.3871 17.9537 50.9663 18.2432C51.5454 18.5328 52.1246 18.6776 52.8485 18.6776C54.2964 18.6776 55.4547 18.0984 56.3234 16.7954L59.0744 17.8089C58.7848 18.5328 58.3504 19.112 57.6265 19.6911C57.0473 20.2703 56.3234 20.7046 55.4547 20.9942C54.7307 21.4286 53.862 21.5733 52.9933 21.5733ZM52.7037 9.26639C52.1246 9.26639 51.5454 9.41118 51.111 9.70076C50.6767 9.99033 50.2423 10.4247 49.808 10.8591C49.5184 11.4382 49.2288 12.0174 49.084 12.7413H56.1786C56.0338 12.0174 55.889 11.4382 55.5995 10.8591C55.3099 10.2799 54.8755 9.99033 54.4412 9.70076C53.862 9.41118 53.2829 9.26639 52.7037 9.26639Z" fill="#4F0590"/>
<path d="M59.0742 21.139L64.4314 13.7548L59.6534 7.23938H63.1283L66.1688 11.8726L69.2094 7.23938H72.5395L67.7615 13.7548L73.1186 21.139H69.4989L66.024 15.7818L62.5491 21.139H59.0742Z" fill="#4F0590"/>
<path d="M79.6354 21.5734C78.6218 21.5734 77.7531 21.4286 76.8844 20.9942C76.0157 20.5599 75.2917 20.1255 74.7126 19.5464C74.1334 18.9672 73.5543 18.0985 73.2647 17.2298C72.9751 16.361 72.6855 15.3475 72.6855 14.334C72.6855 13.3205 72.8303 12.307 73.2647 11.4382C73.5543 10.5695 74.1334 9.70079 74.7126 9.12164C75.2917 8.39771 76.0157 7.96334 76.8844 7.52898C77.7531 7.09462 78.6218 6.94983 79.6354 6.94983C80.6489 6.94983 81.5176 7.09462 82.2415 7.52898C83.1103 7.81855 83.6894 8.3977 84.2686 8.97686C84.9925 9.41122 85.4269 10.1352 85.7164 11.0039L82.8207 11.7278C82.5311 11.0039 82.0967 10.5695 81.5176 10.1352C80.9384 9.70079 80.3593 9.55601 79.6354 9.55601C78.9114 9.55601 78.3323 9.70079 77.7531 10.1352C77.174 10.5695 76.7396 11.1487 76.45 11.7278C76.1604 12.307 76.0157 13.1757 76.0157 14.0444C76.0157 14.9131 76.1604 15.6371 76.45 16.361C76.7396 17.085 77.174 17.5193 77.7531 17.9537C78.3323 18.3881 78.9114 18.5328 79.7801 18.5328C80.5041 18.5328 81.0832 18.3881 81.6624 17.9537C82.2415 17.5193 82.6759 17.085 82.9655 16.361L85.8612 17.085C85.5716 17.9537 85.1373 18.6776 84.5581 19.2568C83.979 19.8359 83.255 20.4151 82.3863 20.7047C81.5176 21.4286 80.6489 21.5734 79.6354 21.5734Z" fill="#4F0590"/>
<path d="M87.3086 21.139V1.3031H90.3491V21.139H87.3086Z" fill="#4F0590"/>
<path d="M98.7471 21.5734C97.444 21.5734 96.4305 21.2838 95.5618 20.7046C94.693 20.1255 93.9691 19.4015 93.39 18.388C92.9556 17.3745 92.666 16.2162 92.666 14.9131V7.23938H95.7066V15.0579C95.7066 16.2162 95.9961 17.0849 96.5753 17.8089C97.1544 18.5328 97.8784 18.8224 98.8919 18.8224C99.9054 18.8224 100.629 18.5328 101.208 17.8089C101.788 17.0849 102.077 16.2162 102.077 15.0579V7.23938H105.118V15.0579C105.118 16.361 104.828 17.5193 104.394 18.5328C103.959 19.5463 103.236 20.2703 102.222 20.8494C101.064 21.2838 99.9054 21.5734 98.7471 21.5734Z" fill="#4F0590"/>
<path d="M111.922 21.5733C111.053 21.5733 110.185 21.4286 109.461 21.139C108.737 20.8494 108.013 20.415 107.434 19.8359C106.855 19.2567 106.565 18.6776 106.275 17.8089L109.026 17.0849C109.316 17.6641 109.606 18.0984 110.185 18.5328C110.764 18.8224 111.343 18.9672 111.922 18.9672C112.646 18.9672 113.225 18.8224 113.66 18.5328C114.094 18.2432 114.383 17.8089 114.383 17.2297C114.383 16.7954 114.239 16.361 113.804 16.0714C113.515 15.7818 112.936 15.4923 112.067 15.3475L111.198 15.2027C109.75 14.9131 108.592 14.4787 107.868 13.7548C107.144 13.0309 106.71 12.1621 106.71 11.1486C106.71 10.2799 106.999 9.55597 107.434 8.83203C107.868 8.10809 108.447 7.67373 109.316 7.23937C110.04 6.80501 111.053 6.66022 112.067 6.66022C112.936 6.66022 113.804 6.80501 114.528 7.09458C115.252 7.38416 115.831 7.81852 116.411 8.39767C116.845 8.97682 117.279 9.55597 117.424 10.2799L114.383 11.1486C114.239 10.5695 113.804 10.1351 113.37 9.84555C112.936 9.55597 112.356 9.41118 111.777 9.41118C111.198 9.41118 110.619 9.55597 110.185 9.84555C109.75 10.1351 109.605 10.5695 109.605 11.0038C109.605 11.4382 109.75 11.7278 110.185 12.0174C110.619 12.3069 111.198 12.4517 112.067 12.5965L112.936 12.7413C114.383 13.0309 115.397 13.4652 116.266 14.1892C116.99 14.9131 117.424 15.7818 117.424 16.9401C117.424 17.6641 117.279 18.2432 116.99 18.8224C116.7 19.4015 116.411 19.8359 115.831 20.2703C115.397 20.7046 114.818 20.9942 114.094 21.2838C113.37 21.4286 112.646 21.5733 111.922 21.5733Z" fill="#4F0590"/>
<path d="M122.202 3.33012C122.202 3.61969 122.057 3.90927 121.912 4.19884C121.768 4.48842 121.478 4.77799 121.188 4.92278C120.899 5.06757 120.609 5.21235 120.32 5.21235C120.03 5.21235 119.741 5.06757 119.451 4.92278C119.161 4.77799 118.872 4.48842 118.727 4.19884C118.582 3.90927 118.438 3.61969 118.438 3.33012C118.438 3.04054 118.582 2.75096 118.727 2.46139C118.872 2.17181 119.161 1.88224 119.451 1.73745C119.741 1.59266 120.03 1.44788 120.32 1.44788C120.609 1.44788 120.899 1.59266 121.188 1.73745C121.478 1.88224 121.768 2.17181 121.912 2.46139C122.057 2.75096 122.202 3.04054 122.202 3.33012ZM118.872 21.139V7.23938H121.912V21.139H118.872Z" fill="#4F0590"/>
<path d="M128.138 21.139L122.781 7.23938H126.111L129.731 17.9537L133.351 7.23938H136.536L131.179 21.139H128.138Z" fill="#4F0590"/>
<path d="M143.63 21.5733C142.616 21.5733 141.603 21.4286 140.734 20.9942C139.866 20.5598 139.142 20.1255 138.418 19.4015C137.839 18.6776 137.259 17.9537 136.97 17.0849C136.68 16.2162 136.391 15.2027 136.391 14.0444C136.391 13.0309 136.535 12.0174 136.97 11.1486C137.259 10.2799 137.839 9.55597 138.418 8.83203C138.997 8.10809 139.721 7.67373 140.589 7.23937C141.458 6.80501 142.327 6.66022 143.34 6.66022C144.354 6.66022 145.223 6.80501 145.947 7.23937C146.815 7.52894 147.394 8.10809 148.118 8.68724C148.698 9.26639 149.132 10.1351 149.422 11.0038C149.711 11.8726 149.856 12.8861 149.856 13.8996V14.7683H139.576C139.721 15.6371 139.866 16.361 140.3 16.9401C140.589 17.5193 141.024 17.9537 141.603 18.2432C142.182 18.5328 142.761 18.6776 143.485 18.6776C144.933 18.6776 146.091 18.0984 146.96 16.7954L149.711 17.8089C149.422 18.5328 148.987 19.112 148.263 19.6911C147.684 20.2703 146.96 20.7046 146.091 20.9942C145.367 21.4286 144.499 21.5733 143.63 21.5733ZM143.34 9.26639C142.761 9.26639 142.182 9.41118 141.748 9.70076C141.313 9.99033 140.879 10.4247 140.445 10.8591C140.155 11.4382 139.866 12.0174 139.721 12.7413H146.815C146.671 12.0174 146.526 11.4382 146.236 10.8591C145.947 10.2799 145.512 9.99033 145.078 9.70076C144.499 9.41118 143.92 9.26639 143.34 9.26639Z" fill="#4F0590"/>
<path d="M51.2561 45.1737C50.3874 45.1737 49.5186 45.029 48.7947 44.7394C48.0708 44.4498 47.3468 44.0154 46.7677 43.4363C46.1885 42.8571 45.899 42.278 45.6094 41.4093L48.3603 40.6853C48.6499 41.2645 48.9395 41.6988 49.5186 42.1332C50.0978 42.4228 50.6769 42.5676 51.2561 42.5676C51.98 42.5676 52.5592 42.4228 52.9935 42.1332C53.4279 41.8436 53.7175 41.4093 53.7175 40.8301C53.7175 40.3958 53.5727 39.9614 53.1383 39.6718C52.8488 39.3822 52.2696 39.0927 51.4009 38.9479L50.5322 38.8031C49.0843 38.5135 47.926 38.0792 47.202 37.3552C46.4781 36.6313 46.0437 35.7626 46.0437 34.749C46.0437 33.8803 46.3333 33.1564 46.7677 32.4324C47.202 31.7085 47.7812 31.2741 48.6499 30.8398C49.5186 30.4054 50.3874 30.2606 51.4009 30.2606C52.2696 30.2606 53.1383 30.4054 53.8623 30.695C54.5862 30.9846 55.1654 31.4189 55.7445 31.9981C56.1789 32.5772 56.6132 33.1564 56.758 33.8803L53.7175 34.749C53.5727 34.1699 53.1383 33.7355 52.704 33.4459C52.2696 33.1564 51.6905 33.0116 51.1113 33.0116C50.5322 33.0116 49.953 33.1564 49.5186 33.4459C49.0843 33.7355 48.9395 34.1699 48.9395 34.6042C48.9395 35.0386 49.0843 35.3282 49.5186 35.6178C49.953 35.9073 50.5322 36.0521 51.4009 36.1969L52.2696 36.3417C53.7175 36.6313 54.731 37.0656 55.5997 37.7896C56.3237 38.5135 56.758 39.3822 56.758 40.5405C56.758 41.2645 56.6132 41.8436 56.3237 42.4228C56.0341 43.0019 55.7445 43.4363 55.1654 43.8707C54.731 44.305 54.1518 44.5946 53.4279 44.8842C52.704 45.029 51.98 45.1737 51.2561 45.1737Z" fill="#4F0590"/>
<path d="M58.2051 44.7394V30.8398H60.956L61.1008 32.722C61.5352 31.9981 62.1143 31.419 62.8383 31.1294C63.5622 30.695 64.2862 30.5502 65.2997 30.5502C66.3132 30.5502 67.1819 30.8398 67.9059 31.2742C68.6298 31.7085 69.2089 32.4325 69.6433 33.3012C69.9329 32.722 70.2225 32.2877 70.6568 31.8533C71.0912 31.419 71.6703 31.1294 72.2495 30.8398C72.8286 30.5502 73.5526 30.5502 74.2765 30.5502C75.29 30.5502 76.1587 30.8398 77.0275 31.2742C77.7514 31.7085 78.3306 32.4325 78.7649 33.3012C79.1993 34.1699 79.3441 35.3282 79.3441 36.4865V44.7394H76.3035V36.7761C76.3035 35.6178 76.014 34.7491 75.5796 34.1699C75.1452 33.5908 74.4213 33.3012 73.5526 33.3012C72.9734 33.3012 72.3943 33.446 71.9599 33.7356C71.5255 34.0251 71.0912 34.4595 70.8016 34.8939C70.512 35.473 70.3672 36.0522 70.3672 36.6313V44.7394H67.3267V36.7761C67.3267 35.6178 67.0371 34.7491 66.6028 34.1699C66.1684 33.5908 65.4445 33.3012 64.5757 33.3012C63.9966 33.3012 63.4174 33.446 62.9831 33.7356C62.5487 34.0251 62.1143 34.4595 61.8248 34.8939C61.5352 35.473 61.3904 36.0522 61.3904 36.6313V44.7394H58.2051Z" fill="#4F0590"/>
<path d="M84.8465 26.9305C84.8465 27.2201 84.7017 27.5097 84.5569 27.7992C84.4121 28.0888 84.1226 28.3784 83.833 28.5232C83.5434 28.668 83.2538 28.8128 82.9643 28.8128C82.6747 28.8128 82.3851 28.668 82.0955 28.5232C81.806 28.3784 81.5164 28.0888 81.3716 27.7992C81.2268 27.5097 81.082 27.2201 81.082 26.9305C81.082 26.6409 81.2268 26.3514 81.3716 26.0618C81.5164 25.7722 81.806 25.4826 82.0955 25.3379C82.3851 25.1931 82.6747 25.0483 82.9643 25.0483C83.2538 25.0483 83.5434 25.1931 83.833 25.3379C84.1226 25.4826 84.4121 25.7722 84.5569 26.0618C84.7017 26.2066 84.8465 26.6409 84.8465 26.9305ZM81.3716 44.7394V30.8398H84.4121V44.7394H81.3716Z" fill="#4F0590"/>
<path d="M86.7285 44.7394V24.9035H89.7691V44.7394H86.7285Z" fill="#4F0590"/>
<path d="M98.4562 45.1737C97.4427 45.1737 96.4292 45.029 95.5604 44.5946C94.6917 44.1602 93.9678 43.7259 93.2438 43.0019C92.6647 42.278 92.0855 41.5541 91.7959 40.6853C91.5064 39.8166 91.2168 38.8031 91.2168 37.6448C91.2168 36.6313 91.3616 35.6178 91.7959 34.749C92.0855 33.8803 92.6647 33.1564 93.2438 32.4324C93.823 31.7085 94.5469 31.2741 95.4156 30.8398C96.2844 30.4054 97.1531 30.2606 98.1666 30.2606C99.1801 30.2606 100.049 30.4054 100.773 30.8398C101.642 31.1293 102.221 31.7085 102.945 32.2876C103.524 32.8668 103.958 33.7355 104.248 34.6042C104.537 35.473 104.682 36.4865 104.682 37.5V38.3687H94.4021C94.5469 39.2375 94.6917 39.9614 95.1261 40.5405C95.4156 41.1197 95.85 41.5541 96.4291 41.8436C97.0083 42.1332 97.5875 42.278 98.3114 42.278C99.7593 42.278 100.918 41.6988 101.786 40.3958L104.537 41.4093C104.248 42.1332 103.813 42.7124 103.089 43.2915C102.51 43.8707 101.786 44.305 100.918 44.5946C100.194 45.029 99.4697 45.1737 98.4562 45.1737ZM98.3114 32.8668C97.7322 32.8668 97.1531 33.0116 96.7187 33.3012C96.2844 33.5907 95.85 34.0251 95.4156 34.4595C95.1261 35.0386 94.8365 35.6178 94.6917 36.3417H101.786C101.642 35.6178 101.497 35.0386 101.207 34.4595C100.918 33.8803 100.483 33.5907 100.049 33.3012C99.4697 33.0116 98.8905 32.8668 98.3114 32.8668Z" fill="#4F0590"/>
<path fill-rule="evenodd" clip-rule="evenodd" d="M14.0448 0C16.3614 0 18.2436 1.88224 18.2436 4.19884C18.2436 6.51544 16.3614 8.39768 14.0448 8.39768C11.5834 8.54247 9.70117 6.66023 9.70117 4.19884C9.70117 1.88224 11.5834 0 14.0448 0ZM16.7958 5.06757H11.149C11.5834 6.37066 12.5969 7.23938 14.0448 7.23938C15.3479 7.23938 16.5062 6.37066 16.7958 5.06757Z" fill="#4F0590"/>
<path fill-rule="evenodd" clip-rule="evenodd" d="M16.7949 8.25289C20.5594 5.7915 24.7582 4.48841 29.5362 5.7915C37.4996 9.99034 29.5362 18.8224 27.9436 23.89C26.7853 31.8533 32.8664 44.5946 25.0478 49.8069C31.5633 35.9073 18.8219 26.9305 27.0748 17.2297C33.1559 7.96331 24.3239 6.9498 16.7949 8.25289Z" fill="#4F0590"/>
<path fill-rule="evenodd" clip-rule="evenodd" d="M8.10841 48.7935C7.96362 20.1255 23.7455 17.2297 24.0351 48.6487C18.6779 24.7587 14.0447 22.1525 8.10841 48.7935Z" fill="#4F0590"/>
<path fill-rule="evenodd" clip-rule="evenodd" d="M3.47519 5.7915C-4.48813 9.99035 3.47519 18.8224 5.06786 23.89C6.22616 31.8533 0.145078 44.5946 7.96361 49.8069C1.44817 35.9073 14.3343 26.9305 5.93658 17.2297C5.50222 16.6506 5.21265 16.0714 4.92307 15.4923C4.34392 14.4788 4.19913 13.1757 4.48871 12.0174C4.77828 10.5695 5.7918 9.84556 7.23967 9.84556C13.0312 10.1351 16.7957 15.4923 22.4424 12.1622C19.981 12.3069 18.0987 12.0174 15.6374 10.7143C13.3208 8.97683 6.37095 4.48841 3.47519 5.7915Z" fill="#4F0590"/>
<path fill-rule="evenodd" clip-rule="evenodd" d="M17.086 16.9402L17.5203 17.9537C17.6651 18.0985 17.8099 18.2432 17.9547 18.2432L18.9682 18.388C19.4026 18.388 19.5474 18.9672 19.2578 19.2568L18.5339 19.9807C18.3891 20.1255 18.3891 20.2703 18.3891 20.4151L18.5339 21.4286C18.6786 21.8629 18.0995 22.1525 17.8099 22.0077L16.7964 21.4286C16.6516 21.2838 16.5068 21.2838 16.362 21.4286L15.3485 22.0077C14.9142 22.1525 14.4798 21.8629 14.6246 21.4286L14.7694 20.4151C14.7694 20.2703 14.7694 20.1255 14.6246 19.9807L13.9007 19.2568C13.6111 18.9672 13.7559 18.388 14.1902 18.388L15.2037 18.2432C15.3485 18.2432 15.4933 18.0985 15.6381 17.9537L16.0725 16.9402C16.362 16.5058 16.9412 16.5058 17.086 16.9402Z" fill="#FFA41C"/>
</g>
<defs>
<clipPath id="clip0_1403_1216">
<rect width="150" height="49.8069" fill="white"/>
</clipPath>
</defs>
</svg>
