<?xml version="1.0" encoding="UTF-8"?>
<svg id="Layer_2" data-name="Layer 2" xmlns="http://www.w3.org/2000/svg" viewBox="0 0 905.66 149.94">
  <defs>
    <style>
      .cls-1 {
        fill: #fff;
      }

      .cls-2 {
        fill: #7bd100;
      }
    </style>
  </defs>
  <g id="Layer_1-2" data-name="Layer 1">
    <g>
      <g>
        <path class="cls-1" d="M189.87,122.14V39.38h18.44v82.76h-18.44ZM203.36,95.83v-14.51h20.24c2.7,0,5.04-.54,7.03-1.63,1.98-1.09,3.52-2.62,4.61-4.61,1.09-1.99,1.63-4.29,1.63-6.92s-.54-4.93-1.63-6.92c-1.09-1.99-2.63-3.52-4.61-4.61-1.99-1.09-4.33-1.63-7.03-1.63h-20.24v-15.63h18.78c6.82,0,12.74,1.03,17.77,3.09,5.02,2.06,8.88,5.12,11.58,9.16,2.7,4.05,4.05,9.15,4.05,15.29v1.8c0,6.07-1.37,11.12-4.1,15.13-2.74,4.01-6.6,7.01-11.58,9-4.99,1.99-10.89,2.98-17.71,2.98h-18.78ZM239.68,122.14l-24.06-35.31h20.24l25.19,35.31h-21.37Z"/>
        <path class="cls-1" d="M292.08,124.28c-6.37,0-11.9-1.18-16.59-3.54-4.69-2.36-8.27-5.57-10.74-9.61-2.47-4.05-3.71-8.62-3.71-13.72h17.77c0,3.45,1.16,6.24,3.49,8.38,2.32,2.14,5.58,3.2,9.78,3.2,2.77,0,5.13-.52,7.08-1.57,1.95-1.05,3.45-2.49,4.5-4.33,1.05-1.84,1.57-3.92,1.57-6.24,0-3.6-1.14-6.56-3.43-8.88-2.29-2.32-5.53-3.49-9.73-3.49-2.25,0-4.22.34-5.9,1.01-1.69.67-3.13,1.5-4.33,2.47l-8.32-14.06,24.85-16.19-1.01-1.91h-32.95v-15.74h55.32v17.09l-28.67,18.22-9-2.47c1.5-.45,3.09-.81,4.78-1.07,1.69-.26,3.5-.39,5.45-.39,6.37,0,11.84,1.05,16.42,3.15,4.57,2.1,8.11,5.04,10.63,8.83,2.51,3.79,3.76,8.19,3.76,13.21v1.35c0,5.02-1.26,9.52-3.76,13.49-2.51,3.97-6.07,7.1-10.69,9.39-4.61,2.29-10.14,3.43-16.58,3.43Z"/>
        <path class="cls-1" d="M393.88,124.91c-7.5,0-13.89-1.31-19.17-3.94-5.28-2.62-9.54-6.03-12.76-10.23-3.22-4.2-5.59-8.75-7.08-13.66-1.5-4.91-2.25-9.65-2.25-14.22v-2.48c0-4.95.77-9.89,2.31-14.84,1.54-4.95,3.92-9.45,7.14-13.5,3.22-4.05,7.42-7.31,12.59-9.78,5.17-2.48,11.36-3.71,18.55-3.71s13.64,1.28,18.89,3.82c5.25,2.55,9.41,6.11,12.48,10.68,3.07,4.57,4.95,9.97,5.62,16.19h-11.24c-.6-4.65-2.1-8.49-4.5-11.53-2.4-3.04-5.42-5.3-9.05-6.8-3.64-1.5-7.7-2.25-12.2-2.25-4.87,0-9.15.84-12.82,2.53-3.67,1.69-6.73,4.05-9.16,7.09-2.44,3.04-4.27,6.54-5.51,10.51-1.24,3.97-1.85,8.28-1.85,12.93s.62,8.62,1.85,12.59c1.24,3.97,3.11,7.5,5.62,10.57,2.51,3.07,5.64,5.49,9.39,7.25,3.75,1.76,8.13,2.64,13.16,2.64,7.05,0,12.97-1.76,17.77-5.28,4.8-3.52,7.72-8.62,8.77-15.3h11.24c-.75,5.62-2.64,10.76-5.68,15.41-3.04,4.65-7.23,8.36-12.59,11.13-5.36,2.77-11.86,4.16-19.51,4.16Z"/>
        <path class="cls-1" d="M466.86,124.91c-5.25,0-9.86-.9-13.83-2.7-3.97-1.8-7.33-4.18-10.06-7.14-2.74-2.96-4.8-6.28-6.18-9.95-1.39-3.67-2.08-7.42-2.08-11.24v-2.02c0-3.82.71-7.59,2.14-11.3,1.42-3.71,3.52-7.05,6.3-10.01,2.77-2.96,6.14-5.32,10.12-7.08,3.97-1.76,8.51-2.64,13.61-2.64s9.63.88,13.61,2.64c3.97,1.76,7.35,4.12,10.12,7.08,2.77,2.96,4.87,6.3,6.3,10.01,1.42,3.71,2.14,7.48,2.14,11.3v2.02c0,3.82-.69,7.57-2.08,11.24-1.39,3.67-3.45,6.99-6.18,9.95-2.74,2.96-6.09,5.34-10.06,7.14-3.97,1.8-8.59,2.7-13.83,2.7ZM466.86,115.24c4.5,0,8.34-.99,11.53-2.98,3.18-1.98,5.62-4.67,7.31-8.04,1.69-3.37,2.53-7.16,2.53-11.36s-.86-8.1-2.59-11.47c-1.73-3.37-4.18-6.03-7.37-7.98-3.19-1.95-6.99-2.92-11.41-2.92s-8.14.97-11.36,2.92c-3.22,1.95-5.7,4.61-7.42,7.98-1.73,3.37-2.59,7.2-2.59,11.47s.84,7.98,2.53,11.36c1.69,3.37,4.12,6.05,7.31,8.04,3.18,1.99,7.03,2.98,11.53,2.98Z"/>
        <path class="cls-1" d="M505.92,122.88v-60.05h8.55v25.75h-1.35c0-5.92.8-10.93,2.42-15.01,1.61-4.08,4.06-7.2,7.36-9.33,3.3-2.14,7.46-3.2,12.48-3.2h.45c7.57,0,13.18,2.36,16.81,7.08,3.63,4.72,5.45,11.55,5.45,20.47v34.3h-10.8v-36.55c0-4.65-1.31-8.38-3.94-11.19-2.62-2.81-6.22-4.22-10.8-4.22s-8.54,1.46-11.47,4.39c-2.93,2.92-4.39,6.82-4.39,11.69v35.87h-10.8Z"/>
        <path class="cls-1" d="M592.72,124.68c-7.87,0-13.96-1.69-18.27-5.06-4.31-3.37-6.54-7.98-6.69-13.83h10.12c.15,2.33,1.33,4.52,3.54,6.58,2.21,2.06,5.98,3.09,11.3,3.09,4.8,0,8.47-.96,11.02-2.87,2.55-1.91,3.82-4.25,3.82-7.03,0-2.47-.94-4.4-2.81-5.79-1.87-1.39-4.91-2.31-9.11-2.75l-6.52-.68c-5.7-.6-10.34-2.31-13.94-5.12-3.6-2.81-5.4-6.77-5.4-11.86,0-3.82.97-7.1,2.93-9.84,1.95-2.74,4.65-4.84,8.09-6.3,3.45-1.46,7.42-2.19,11.92-2.19,6.75,0,12.22,1.5,16.42,4.5,4.2,3,6.37,7.46,6.52,13.38h-10.12c-.08-2.4-1.18-4.44-3.32-6.13-2.13-1.69-5.3-2.53-9.5-2.53s-7.39.86-9.56,2.59c-2.18,1.72-3.26,3.9-3.26,6.52,0,2.25.77,4.05,2.31,5.4,1.54,1.35,4.06,2.21,7.59,2.59l6.52.67c6.45.68,11.62,2.46,15.52,5.34,3.9,2.89,5.85,6.96,5.85,12.2,0,3.75-1.07,7.07-3.21,9.95-2.13,2.89-5.08,5.14-8.83,6.75-3.75,1.61-8.06,2.42-12.93,2.42Z"/>
        <path class="cls-1" d="M648.77,124.68c-7.12,0-12.59-2.32-16.42-6.97-3.82-4.65-5.74-11.36-5.74-20.13v-34.86h10.8v37c0,4.72,1.27,8.41,3.82,11.08,2.55,2.66,6,3.99,10.34,3.99s8.17-1.44,11.02-4.33c2.85-2.88,4.27-6.84,4.27-11.86v-35.87h10.8v60.16h-8.54v-25.75h1.35c0,5.92-.79,10.93-2.36,15.01-1.57,4.09-3.92,7.2-7.03,9.33-3.11,2.14-7.07,3.21-11.86,3.21h-.45Z"/>
        <path class="cls-1" d="M683.56,49.34v-8.54h19.12v8.54h-19.12ZM691.88,122.88V40.8h10.8v82.09h-10.8Z"/>
        <path class="cls-1" d="M720.62,70.93v-8.09h26.23v8.09h-26.23ZM737.62,123.56c-4.5,0-8.38-.64-11.64-1.91-3.26-1.27-5.77-3.47-7.53-6.58-1.76-3.11-2.64-7.33-2.64-12.65v-57.8h10.35v59.15c0,3.22.88,5.72,2.64,7.48,1.76,1.76,4.25,2.64,7.48,2.64h10.57v9.67h-9.22Z"/>
        <path class="cls-1" d="M753.03,71.38v-8.54h20.02v8.54h-20.02ZM765.29,53.17c-2.4,0-4.18-.64-5.34-1.91-1.16-1.27-1.74-2.89-1.74-4.84s.58-3.56,1.74-4.84c1.16-1.27,2.94-1.91,5.34-1.91s4.18.64,5.34,1.91c1.16,1.28,1.74,2.89,1.74,4.84s-.58,3.56-1.74,4.84c-1.16,1.28-2.94,1.91-5.34,1.91ZM762.25,122.88v-60.05h10.8v60.05h-10.8Z"/>
        <path class="cls-1" d="M784.3,122.88v-60.05h8.55v25.75h-1.35c0-5.92.8-10.93,2.42-15.01,1.61-4.08,4.06-7.2,7.36-9.33,3.3-2.14,7.46-3.2,12.48-3.2h.45c7.57,0,13.18,2.36,16.81,7.08,3.63,4.72,5.45,11.55,5.45,20.47v34.3h-10.8v-36.55c0-4.65-1.31-8.38-3.94-11.19-2.62-2.81-6.22-4.22-10.8-4.22s-8.54,1.46-11.47,4.39c-2.93,2.92-4.39,6.82-4.39,11.69v35.87h-10.8Z"/>
        <path class="cls-1" d="M871.27,146.27c-2.78,0-5.57-.11-8.38-.34-2.81-.23-5.49-.53-8.04-.9v-9.11c2.7.37,5.53.69,8.49.96,2.96.26,5.75.39,8.38.39,5.47,0,9.84-.73,13.1-2.19,3.26-1.46,5.62-3.75,7.08-6.86,1.46-3.11,2.19-7.1,2.19-11.98v-11.47l3.6-8.55c-.23,6.07-1.5,11.12-3.82,15.13-2.32,4.01-5.34,7.01-9.05,9-3.71,1.99-7.82,2.98-12.31,2.98-4.2,0-8.04-.81-11.53-2.42-3.49-1.61-6.49-3.84-9-6.69-2.51-2.85-4.46-6.13-5.85-9.84-1.39-3.71-2.08-7.63-2.08-11.75v-2.02c0-4.2.71-8.11,2.14-11.75,1.42-3.64,3.41-6.8,5.96-9.5,2.55-2.7,5.6-4.8,9.17-6.3,3.56-1.5,7.48-2.25,11.75-2.25,5.02,0,9.45,1.07,13.27,3.2,3.82,2.14,6.84,5.25,9.05,9.33,2.21,4.09,3.43,9.09,3.65,15.01l-3.15.11v-25.64h8.55v52.96c0,7.2-1.11,13.02-3.32,17.49-2.21,4.46-5.73,7.74-10.57,9.84-4.84,2.1-11.27,3.15-19.29,3.15ZM874.53,113.44c3.6,0,6.88-.79,9.84-2.36,2.96-1.57,5.32-3.84,7.08-6.81,1.76-2.96,2.64-6.5,2.64-10.62v-5.17c0-4.05-.92-7.46-2.76-10.23-1.84-2.77-4.21-4.87-7.14-6.3-2.92-1.42-6.11-2.14-9.56-2.14-3.9,0-7.35.9-10.35,2.7-3,1.8-5.32,4.33-6.97,7.59-1.65,3.26-2.48,7.1-2.48,11.53s.84,8.28,2.53,11.58c1.69,3.3,4.01,5.83,6.97,7.59,2.96,1.76,6.35,2.64,10.18,2.64Z"/>
      </g>
      <g>
        <path class="cls-1" d="M505.62,26.12V6.32h3.23v19.8h-3.23ZM508.31,19.68v-2.83h4.09c.86,0,1.58-.17,2.14-.5.57-.33,1-.79,1.31-1.37.31-.58.46-1.24.46-1.98s-.15-1.43-.46-2.01c-.31-.58-.74-1.04-1.31-1.36-.56-.32-1.28-.49-2.14-.49h-4.09v-2.83h3.72c1.63,0,3.01.26,4.13.79,1.12.53,1.98,1.28,2.56,2.23.58.96.87,2.11.87,3.44v.43c0,1.31-.29,2.45-.87,3.42-.58.97-1.44,1.72-2.56,2.25-1.12.53-2.5.8-4.13.8h-3.72Z"/>
        <path class="cls-1" d="M522.87,26.12v-14.52h2.5v6.06h-.11c0-2.08.46-3.64,1.37-4.68.92-1.03,2.27-1.55,4.07-1.55h.51v2.77h-.97c-1.37,0-2.41.36-3.14,1.09-.73.73-1.09,1.76-1.09,3.11v7.71h-3.15Z"/>
        <path class="cls-1" d="M540.7,26.61c-1.28,0-2.4-.21-3.37-.63-.97-.42-1.79-.98-2.45-1.68s-1.17-1.5-1.51-2.39c-.34-.89-.51-1.81-.51-2.76v-.54c0-.95.18-1.88.53-2.78.35-.9.86-1.7,1.54-2.41.67-.71,1.5-1.27,2.47-1.68.97-.41,2.07-.62,3.31-.62s2.34.21,3.3.62c.96.41,1.78.98,2.47,1.68.68.71,1.2,1.51,1.55,2.41.35.9.53,1.82.53,2.78v.54c0,.95-.17,1.87-.51,2.76s-.85,1.68-1.51,2.39c-.66.7-1.48,1.26-2.45,1.68-.97.42-2.09.63-3.37.63ZM540.7,23.86c.99,0,1.83-.22,2.53-.66s1.23-1.04,1.6-1.79c.37-.75.55-1.6.55-2.53s-.19-1.81-.57-2.56c-.38-.76-.92-1.35-1.62-1.79-.7-.44-1.53-.66-2.5-.66s-1.81.22-2.51.66-1.24,1.04-1.62,1.79c-.38.75-.56,1.61-.56,2.56s.18,1.78.55,2.53c.37.76.9,1.35,1.6,1.79.7.44,1.54.66,2.53.66Z"/>
        <path class="cls-1" d="M558.45,26.61c-1.24,0-2.32-.21-3.25-.63-.93-.42-1.69-1-2.29-1.73-.6-.73-1.05-1.54-1.35-2.42-.3-.89-.44-1.79-.44-2.71v-.48c0-.95.15-1.87.46-2.76.31-.89.76-1.69,1.37-2.41.61-.72,1.37-1.29,2.28-1.71.91-.42,1.97-.63,3.19-.63s2.35.23,3.33.7c.98.47,1.76,1.13,2.36,1.98.59.85.93,1.84,1,2.98h-3.04c-.11-.81-.47-1.49-1.09-2.05-.62-.56-1.47-.84-2.55-.84-.94,0-1.71.22-2.32.65-.61.43-1.07,1.02-1.37,1.77-.31.74-.46,1.6-.46,2.57s.15,1.78.44,2.53c.3.76.76,1.35,1.38,1.78.62.43,1.4.65,2.36.65.74,0,1.37-.13,1.9-.39.53-.26.96-.61,1.28-1.05.32-.44.51-.95.57-1.52h3.07c-.05,1.17-.39,2.18-1,3.03-.61.85-1.42,1.52-2.43,1.99-1.01.48-2.14.71-3.39.71Z"/>
        <path class="cls-1" d="M574.86,26.61c-1.26,0-2.35-.21-3.29-.64-.93-.43-1.7-1-2.29-1.71-.59-.71-1.04-1.51-1.33-2.4-.3-.89-.44-1.8-.44-2.73v-.51c0-.95.15-1.87.44-2.76.29-.89.74-1.69,1.33-2.4.59-.71,1.34-1.28,2.25-1.7.91-.42,1.96-.63,3.17-.63,1.56,0,2.86.34,3.91,1.02,1.04.68,1.82,1.57,2.34,2.65.52,1.09.78,2.26.78,3.52v1.26h-12.88v-2.13h10.75l-.86,1.08c0-.97-.15-1.81-.46-2.52s-.76-1.26-1.35-1.64c-.59-.39-1.34-.58-2.23-.58s-1.72.21-2.34.65c-.63.43-1.1,1.02-1.4,1.78-.31.76-.46,1.64-.46,2.67,0,.97.15,1.84.46,2.6.31.77.78,1.37,1.43,1.81.65.44,1.47.66,2.48.66s1.83-.22,2.48-.66,1.04-.96,1.18-1.55h2.94c-.2.99-.6,1.85-1.2,2.59-.6.74-1.36,1.3-2.28,1.7-.92.4-1.96.59-3.13.59Z"/>
        <path class="cls-1" d="M590.14,26.55c-1.96,0-3.48-.41-4.57-1.24-1.09-.83-1.66-1.97-1.71-3.42h2.91c.04.54.31,1.03.84,1.48.52.45,1.37.67,2.56.67,1.01,0,1.8-.2,2.37-.59s.86-.89.86-1.48c0-.54-.21-.96-.63-1.28-.42-.31-1.14-.53-2.14-.63l-1.43-.14c-1.49-.16-2.67-.6-3.54-1.32-.87-.72-1.31-1.69-1.31-2.91,0-.97.24-1.79.73-2.45.48-.66,1.15-1.17,2.01-1.53s1.84-.54,2.95-.54c1.73,0,3.12.38,4.18,1.15,1.06.76,1.61,1.88,1.64,3.36h-2.88c-.04-.56-.3-1.02-.78-1.4-.49-.38-1.21-.57-2.16-.57-.9,0-1.59.18-2.06.54-.48.36-.71.82-.71,1.37,0,.5.18.9.54,1.18.36.29.94.48,1.75.57l1.43.13c1.63.18,2.93.63,3.89,1.36.96.73,1.44,1.74,1.44,3.03,0,.93-.26,1.75-.78,2.45-.52.7-1.24,1.24-2.17,1.63-.93.39-2,.58-3.22.58Z"/>
        <path class="cls-1" d="M604.77,26.55c-1.96,0-3.48-.41-4.57-1.24-1.09-.83-1.66-1.97-1.71-3.42h2.91c.04.54.31,1.03.84,1.48.52.45,1.37.67,2.56.67,1.01,0,1.8-.2,2.37-.59s.86-.89.86-1.48c0-.54-.21-.96-.63-1.28-.42-.31-1.14-.53-2.14-.63l-1.43-.14c-1.49-.16-2.67-.6-3.54-1.32-.87-.72-1.31-1.69-1.31-2.91,0-.97.24-1.79.73-2.45.48-.66,1.15-1.17,2.01-1.53s1.84-.54,2.95-.54c1.73,0,3.12.38,4.18,1.15,1.06.76,1.61,1.88,1.64,3.36h-2.88c-.04-.56-.3-1.02-.78-1.4-.49-.38-1.21-.57-2.16-.57-.9,0-1.59.18-2.06.54-.48.36-.71.82-.71,1.37,0,.5.18.9.54,1.18.36.29.94.48,1.75.57l1.43.13c1.63.18,2.93.63,3.89,1.36.96.73,1.44,1.74,1.44,3.03,0,.93-.26,1.75-.78,2.45-.52.7-1.24,1.24-2.17,1.63-.93.39-2,.58-3.22.58Z"/>
        <path class="cls-1" d="M613.58,26.12v-3.8h3.67v3.8h-3.67Z"/>
        <path class="cls-1" d="M625.65,9.31v-2.86h14.9v2.86h-14.9ZM631.47,26.12V8.77h3.23v17.35h-3.23Z"/>
        <path class="cls-1" d="M648.09,26.61c-1.26,0-2.35-.21-3.29-.64-.93-.43-1.7-1-2.29-1.71-.59-.71-1.04-1.51-1.33-2.4-.3-.89-.44-1.8-.44-2.73v-.51c0-.95.15-1.87.44-2.76.29-.89.74-1.69,1.33-2.4.59-.71,1.34-1.28,2.25-1.7.91-.42,1.96-.63,3.17-.63,1.56,0,2.86.34,3.91,1.02,1.04.68,1.82,1.57,2.34,2.65.52,1.09.78,2.26.78,3.52v1.26h-12.88v-2.13h10.75l-.86,1.08c0-.97-.15-1.81-.46-2.52-.31-.71-.76-1.26-1.35-1.64-.59-.39-1.34-.58-2.23-.58s-1.72.21-2.34.65c-.63.43-1.1,1.02-1.4,1.78-.31.76-.46,1.64-.46,2.67,0,.97.15,1.84.46,2.6.31.77.78,1.37,1.43,1.81s1.47.66,2.48.66,1.83-.22,2.48-.66c.65-.44,1.04-.96,1.18-1.55h2.94c-.2.99-.6,1.85-1.2,2.59-.6.74-1.36,1.3-2.28,1.7-.92.4-1.96.59-3.13.59Z"/>
        <path class="cls-1" d="M664.66,26.61c-1.24,0-2.32-.21-3.25-.63-.93-.42-1.69-1-2.29-1.73-.6-.73-1.05-1.54-1.35-2.42-.3-.89-.44-1.79-.44-2.71v-.48c0-.95.15-1.87.46-2.76s.76-1.69,1.37-2.41c.61-.72,1.37-1.29,2.28-1.71.91-.42,1.97-.63,3.19-.63s2.35.23,3.33.7c.98.47,1.76,1.13,2.36,1.98.59.85.93,1.84,1,2.98h-3.04c-.11-.81-.47-1.49-1.09-2.05-.62-.56-1.47-.84-2.55-.84-.94,0-1.71.22-2.32.65-.61.43-1.07,1.02-1.37,1.77-.31.74-.46,1.6-.46,2.57s.15,1.78.44,2.53c.3.76.76,1.35,1.38,1.78.62.43,1.4.65,2.36.65.74,0,1.37-.13,1.9-.39.53-.26.96-.61,1.28-1.05.32-.44.51-.95.57-1.52h3.07c-.05,1.17-.39,2.18-1,3.03-.61.85-1.42,1.52-2.43,1.99-1.01.48-2.14.71-3.39.71Z"/>
        <path class="cls-1" d="M674.74,26.12V6.46h3.15v11.61h-.65c0-1.44.18-2.67.55-3.7.37-1.03.93-1.82,1.7-2.37.76-.55,1.73-.82,2.9-.82h.13c1.7,0,3,.58,3.86,1.73.87,1.15,1.31,2.8,1.31,4.96v8.27h-3.15v-8.73c0-1.04-.3-1.86-.9-2.47-.6-.6-1.38-.9-2.33-.9-1.02,0-1.85.34-2.48,1.02-.63.68-.94,1.58-.94,2.7v8.38h-3.15Z"/>
        <path class="cls-1" d="M692.09,26.12v-14.52h2.5v6.22h-.29c0-1.44.19-2.65.58-3.64.39-.99.97-1.74,1.76-2.25.79-.51,1.77-.77,2.94-.77h.13c1.8,0,3.14.57,4.01,1.7.88,1.13,1.32,2.78,1.32,4.96v8.3h-3.15v-8.73c0-1-.29-1.82-.86-2.44-.58-.62-1.37-.93-2.37-.93s-1.85.32-2.48.96c-.63.64-.94,1.49-.94,2.55v8.6h-3.15Z"/>
        <path class="cls-1" d="M716.26,26.61c-1.28,0-2.4-.21-3.37-.63-.97-.42-1.79-.98-2.45-1.68s-1.17-1.5-1.51-2.39c-.34-.89-.51-1.81-.51-2.76v-.54c0-.95.18-1.88.53-2.78.35-.9.86-1.7,1.54-2.41.67-.71,1.5-1.27,2.47-1.68.97-.41,2.07-.62,3.31-.62s2.34.21,3.3.62c.96.41,1.78.98,2.47,1.68.68.71,1.2,1.51,1.55,2.41.35.9.53,1.82.53,2.78v.54c0,.95-.17,1.87-.51,2.76-.34.89-.85,1.68-1.51,2.39-.66.7-1.48,1.26-2.45,1.68-.97.42-2.09.63-3.37.63ZM716.26,23.86c.99,0,1.83-.22,2.53-.66.7-.44,1.23-1.04,1.6-1.79.37-.75.55-1.6.55-2.53s-.19-1.81-.57-2.56c-.38-.76-.92-1.35-1.62-1.79-.7-.44-1.53-.66-2.5-.66s-1.81.22-2.51.66-1.24,1.04-1.62,1.79c-.38.75-.56,1.61-.56,2.56s.18,1.78.55,2.53c.37.76.9,1.35,1.6,1.79s1.54.66,2.53.66Z"/>
        <path class="cls-1" d="M725.95,8.88v-2.42h5.09v2.42h-5.09ZM727.86,26.12V6.46h3.18v19.67h-3.18Z"/>
        <path class="cls-1" d="M742.5,26.61c-1.28,0-2.4-.21-3.37-.63-.97-.42-1.79-.98-2.45-1.68-.66-.7-1.17-1.5-1.51-2.39-.34-.89-.51-1.81-.51-2.76v-.54c0-.95.18-1.88.53-2.78.35-.9.86-1.7,1.54-2.41.67-.71,1.5-1.27,2.47-1.68.97-.41,2.07-.62,3.31-.62s2.34.21,3.3.62c.96.41,1.78.98,2.47,1.68.68.71,1.2,1.51,1.55,2.41.35.9.53,1.82.53,2.78v.54c0,.95-.17,1.87-.51,2.76-.34.89-.85,1.68-1.51,2.39-.66.7-1.48,1.26-2.45,1.68-.97.42-2.09.63-3.37.63ZM742.5,23.86c.99,0,1.83-.22,2.53-.66s1.23-1.04,1.6-1.79c.37-.75.55-1.6.55-2.53s-.19-1.81-.57-2.56c-.38-.76-.92-1.35-1.62-1.79-.7-.44-1.53-.66-2.5-.66s-1.81.22-2.51.66-1.24,1.04-1.62,1.79c-.38.75-.56,1.61-.56,2.56s.18,1.78.55,2.53c.37.76.9,1.35,1.6,1.79.7.44,1.54.66,2.53.66Z"/>
        <path class="cls-1" d="M759.5,31.81c-.68,0-1.37-.03-2.07-.08-.7-.05-1.36-.12-1.97-.21v-2.67c.65.09,1.33.17,2.06.23.73.06,1.4.1,2.03.1,1.26,0,2.27-.16,3.03-.49.76-.32,1.32-.82,1.67-1.5.35-.67.53-1.55.53-2.63v-2.8l.84-1.94c-.05,1.4-.35,2.58-.88,3.53-.53.95-1.23,1.67-2.1,2.15-.87.49-1.87.73-2.98.73-1.01,0-1.92-.19-2.75-.57-.83-.38-1.53-.91-2.13-1.59-.59-.68-1.05-1.47-1.38-2.36-.32-.89-.48-1.84-.48-2.84v-.51c0-1.02.17-1.97.5-2.86.33-.88.8-1.65,1.41-2.3.61-.66,1.34-1.16,2.2-1.52.85-.36,1.79-.54,2.82-.54,1.18,0,2.23.26,3.14.77.91.51,1.62,1.26,2.14,2.25.52.99.8,2.19.84,3.61l-.7.08v-6.25h2.51v12.8c0,1.76-.28,3.18-.85,4.27-.57,1.09-1.46,1.88-2.67,2.39-1.21.5-2.8.76-4.76.76ZM760.44,23.43c.79,0,1.51-.17,2.17-.53.66-.35,1.18-.85,1.56-1.51.39-.65.58-1.44.58-2.36v-1.1c0-.9-.2-1.66-.61-2.28-.4-.62-.93-1.09-1.58-1.41-.65-.32-1.35-.49-2.1-.49-.86,0-1.62.2-2.29.61-.66.4-1.18.97-1.55,1.7s-.55,1.58-.55,2.55.19,1.85.56,2.57c.38.73.9,1.28,1.55,1.67.66.39,1.4.58,2.25.58Z"/>
        <path class="cls-1" d="M775.23,25.8l-4.93-14.2h3.21l4.72,14.2h-2.99ZM771.54,31.81v-2.78h2.4c.56,0,1.03-.07,1.43-.2s.72-.37.97-.7c.25-.33.46-.78.62-1.33l4.23-15.19h3.04l-4.58,15.95c-.29,1.01-.69,1.82-1.2,2.45-.51.63-1.16,1.09-1.94,1.37-.78.29-1.72.43-2.82.43h-2.15ZM776.01,25.8v-2.56h3.12v2.56h-3.12Z"/>
        <path class="cls-1" d="M785.63,26.12v-3.8h3.67v3.8h-3.67Z"/>
        <path class="cls-1" d="M799.67,26.23V6.32h3.23v19.91h-3.23ZM802.36,26.23v-2.99h4.5c1.09,0,2.07-.18,2.94-.53.86-.35,1.6-.84,2.21-1.47s1.07-1.37,1.39-2.22c.32-.85.47-1.77.47-2.76,0-1.06-.16-2.01-.47-2.86-.31-.84-.78-1.57-1.39-2.18s-1.35-1.08-2.21-1.41c-.86-.33-1.84-.5-2.94-.5h-4.5v-2.99h4.23c1.78,0,3.33.27,4.65.81,1.32.54,2.42,1.27,3.3,2.18.88.92,1.54,1.95,1.97,3.1.43,1.15.65,2.33.65,3.55v.59c0,1.15-.21,2.3-.65,3.46-.43,1.16-1.09,2.2-1.97,3.12-.88.93-1.98,1.67-3.3,2.24-1.32.56-2.87.85-4.65.85h-4.23Z"/>
        <path class="cls-1" d="M826.9,26.61c-1.26,0-2.35-.21-3.29-.64-.93-.43-1.7-1-2.29-1.71-.59-.71-1.04-1.51-1.33-2.4-.3-.89-.44-1.8-.44-2.73v-.51c0-.95.15-1.87.44-2.76.29-.89.74-1.69,1.33-2.4.59-.71,1.34-1.28,2.25-1.7.91-.42,1.96-.63,3.17-.63,1.56,0,2.86.34,3.91,1.02,1.04.68,1.82,1.57,2.34,2.65.52,1.09.78,2.26.78,3.52v1.26h-12.88v-2.13h10.75l-.86,1.08c0-.97-.15-1.81-.46-2.52-.31-.71-.76-1.26-1.35-1.64-.59-.39-1.34-.58-2.23-.58s-1.72.21-2.34.65c-.63.43-1.1,1.02-1.4,1.78-.31.76-.46,1.64-.46,2.67,0,.97.15,1.84.46,2.6.31.77.78,1.37,1.43,1.81s1.47.66,2.48.66,1.83-.22,2.48-.66,1.04-.96,1.18-1.55h2.94c-.2.99-.6,1.85-1.2,2.59-.6.74-1.36,1.3-2.28,1.7-.92.4-1.96.59-3.13.59Z"/>
        <path class="cls-1" d="M840.05,26.12l-4.74-14.52h3.29l4.58,14.52h-3.12ZM840.94,26.12v-2.56h3.53v2.56h-3.53ZM842.29,26.12l3.99-14.52h3.07l-4.12,14.52h-2.94Z"/>
        <path class="cls-1" d="M861.82,26.61c-1.78,0-3.31-.31-4.59-.93-1.28-.62-2.35-1.44-3.19-2.47-.85-1.02-1.47-2.12-1.87-3.3-.4-1.17-.61-2.3-.61-3.38v-.59c0-1.18.21-2.37.63-3.56.42-1.18,1.06-2.27,1.91-3.25.85-.98,1.92-1.76,3.21-2.36,1.29-.59,2.79-.89,4.51-.89s3.22.3,4.5.89c1.28.59,2.34,1.38,3.21,2.36.86.98,1.5,2.06,1.92,3.25.42,1.18.63,2.37.63,3.56v.59c0,1.08-.21,2.21-.62,3.38-.41,1.18-1.04,2.28-1.87,3.3-.84,1.02-1.9,1.85-3.19,2.47-1.29.62-2.82.93-4.58.93ZM861.82,23.62c1.08,0,2.05-.2,2.91-.59.86-.39,1.6-.93,2.21-1.62s1.07-1.46,1.39-2.34c.32-.88.47-1.81.47-2.8,0-1.04-.16-2.01-.48-2.9-.32-.89-.79-1.67-1.39-2.34-.6-.67-1.33-1.2-2.2-1.58-.86-.38-1.83-.57-2.91-.57s-2.05.19-2.91.57c-.86.38-1.6.9-2.21,1.58-.61.68-1.07,1.46-1.39,2.34-.32.89-.47,1.85-.47,2.9,0,.99.16,1.92.47,2.8.31.88.78,1.66,1.39,2.34s1.35,1.22,2.21,1.62c.86.4,1.83.59,2.91.59Z"/>
        <path class="cls-1" d="M875.78,31.51V11.6h2.5v6.28l-.48-.03c.09-1.53.41-2.78.97-3.77.56-.99,1.29-1.72,2.21-2.21.92-.48,1.92-.73,3.02-.73s1.99.19,2.83.58c.84.39,1.57.92,2.18,1.6.61.68,1.07,1.47,1.39,2.37.32.9.47,1.87.47,2.91v.51c0,1.02-.16,1.99-.48,2.9-.32.91-.79,1.7-1.4,2.38-.61.68-1.34,1.22-2.18,1.62-.85.4-1.79.59-2.83.59s-2.05-.22-2.96-.67c-.92-.45-1.67-1.17-2.26-2.15-.59-.99-.92-2.27-1-3.85l1.18,1.99v9.59h-3.15ZM883.3,23.89c.88,0,1.65-.21,2.32-.63.66-.42,1.18-1.01,1.55-1.78.37-.76.55-1.64.55-2.63s-.19-1.86-.55-2.61c-.37-.76-.88-1.34-1.53-1.77-.66-.42-1.43-.63-2.33-.63-.79,0-1.53.18-2.21.54-.68.36-1.23.87-1.65,1.55-.41.67-.62,1.48-.62,2.44v1.16c0,.92.21,1.7.63,2.36.42.65.98,1.15,1.66,1.5.68.34,1.41.51,2.18.51Z"/>
        <path class="cls-1" d="M899.49,26.55c-1.96,0-3.48-.41-4.57-1.24-1.09-.83-1.66-1.97-1.71-3.42h2.91c.04.54.31,1.03.84,1.48.52.45,1.37.67,2.56.67,1.01,0,1.8-.2,2.37-.59s.86-.89.86-1.48c0-.54-.21-.96-.63-1.28-.42-.31-1.14-.53-2.14-.63l-1.43-.14c-1.49-.16-2.67-.6-3.54-1.32-.87-.72-1.31-1.69-1.31-2.91,0-.97.24-1.79.73-2.45.48-.66,1.15-1.17,2.01-1.53.85-.36,1.84-.54,2.95-.54,1.73,0,3.12.38,4.18,1.15,1.06.76,1.61,1.88,1.64,3.36h-2.88c-.04-.56-.3-1.02-.78-1.4-.49-.38-1.21-.57-2.16-.57-.9,0-1.59.18-2.06.54-.48.36-.71.82-.71,1.37,0,.5.18.9.54,1.18.36.29.94.48,1.75.57l1.43.13c1.63.18,2.93.63,3.89,1.36.96.73,1.44,1.74,1.44,3.03,0,.93-.26,1.75-.78,2.45-.52.7-1.24,1.24-2.17,1.63-.93.39-2,.58-3.22.58Z"/>
      </g>
      <path class="cls-2" d="M150.05,74.97c0,40.77-32.47,73.93-72.9,74.97v-41.46c0-10.25,1.61-20.38,4.61-29.94,5.07-16.24,16.47-29.83,31.32-38l10.02-5.64h-23.72c-45.95,0-83.14,37.2-83.14,83.14v3.46C5.99,108.71,0,92.59,0,74.97,0,33.51,33.63,0,75.08,0s74.97,33.51,74.97,74.97Z"/>
    </g>
  </g>
</svg>