<?xml version="1.0" encoding="UTF-8"?>
<svg version="1.1" xmlns="http://www.w3.org/2000/svg" width="612" height="408">
<path d="M0 0 C1.229534 -0.00315216 2.45906799 -0.00630432 3.7258606 -0.009552 C5.07879674 -0.00775939 6.43173257 -0.00570774 7.78466797 -0.00341797 C9.17837542 -0.00409229 10.57208275 -0.00506339 11.96578979 -0.00631714 C14.89973053 -0.00779488 17.83364091 -0.00564167 20.76757812 -0.00097656 C24.48097293 0.00464705 28.19429428 0.00148988 31.90768623 -0.00454903 C34.79581219 -0.0082163 37.68392165 -0.00698702 40.57204819 -0.00442123 C42.59223224 -0.00345038 44.612417 -0.00643293 46.63259888 -0.009552 C55.84190647 0.01323989 64.97123617 0.46436583 74.15185547 1.12939453 C74.31828866 5.50746896 74.47993474 9.88563822 74.6340332 14.26416016 C74.6874555 15.75413895 74.74278509 17.24405062 74.80004883 18.73388672 C74.88195383 20.8733879 74.95703256 23.01303546 75.03076172 25.15283203 C75.10145874 27.08521729 75.10145874 27.08521729 75.17358398 29.05664062 C75.15185547 32.12939453 75.15185547 32.12939453 74.15185547 34.12939453 C58.31185547 34.78939453 42.47185547 35.44939453 26.15185547 36.12939453 C26.15185547 41.73939453 26.15185547 47.34939453 26.15185547 53.12939453 C41.00185547 53.12939453 55.85185547 53.12939453 71.15185547 53.12939453 C71.17248047 57.31626953 71.19310547 61.50314453 71.21435547 65.81689453 C71.22345947 67.12875732 71.23256348 68.44062012 71.24194336 69.79223633 C71.24444092 70.83549072 71.24693848 71.87874512 71.24951172 72.95361328 C71.25474854 74.01668701 71.25998535 75.07976074 71.26538086 76.17504883 C71.15902391 78.94284543 70.78080335 81.4373235 70.15185547 84.12939453 C61.15104208 85.45396383 52.16325365 85.24021329 43.08935547 85.19189453 C41.44417454 85.18687034 39.79899212 85.18230905 38.15380859 85.17822266 C34.15309049 85.16814528 30.15258122 85.14855713 26.15185547 85.12939453 C26.64685547 93.54439453 26.64685547 93.54439453 27.15185547 102.12939453 C51.40685547 102.62439453 51.40685547 102.62439453 76.15185547 103.12939453 C76.15185547 114.13444388 75.88390046 125.14871963 75.15185547 136.12939453 C44.79185547 136.12939453 14.43185547 136.12939453 -16.84814453 136.12939453 C-15.65357709 132.54569222 -14.87350484 132.30541275 -11.72314453 130.44189453 C-2.09502503 124.25785593 3.88722725 115.03243118 7.15185547 104.12939453 C7.65123841 101.21422167 7.8457556 98.33256321 7.96435547 95.37939453 C8.00004639 94.59516113 8.0357373 93.81092773 8.07250977 93.00292969 C8.38754191 83.54808808 7.63126232 74.14349298 2.15185547 66.12939453 C0.52348809 64.42528913 -1.13584205 62.74914012 -2.84814453 61.12939453 C-3.17814453 60.13939453 -3.50814453 59.14939453 -3.84814453 58.12939453 C-6.08027341 57.06122777 -6.08027341 57.06122777 -8.84814453 56.12939453 C-11.08133308 55.07537404 -13.31004532 54.01184707 -15.53564453 52.94189453 C-19.82743695 50.8915274 -24.12703028 48.98414379 -28.58642578 47.32470703 C-29.77522339 46.88227661 -29.77522339 46.88227661 -30.98803711 46.4309082 C-32.5181714 45.87074008 -34.05301134 45.32319996 -35.59301758 44.79077148 C-41.20261901 42.73968374 -47.06982847 39.68602666 -49.84814453 34.12939453 C-50.27252946 30.39480715 -49.96069983 28.36857454 -48.34814453 24.94189453 C-44.27943638 20.36459786 -40.12305065 19.39929865 -34.16064453 18.69189453 C-29.1944579 18.86925834 -24.5754898 20.59414983 -19.89892578 22.15673828 C-17.21609762 23.01208298 -14.61758495 23.64127424 -11.84814453 24.12939453 C-10.33632153 22.38959822 -8.83902955 20.63716638 -7.34814453 18.87939453 C-6.51283203 17.90486328 -5.67751953 16.93033203 -4.81689453 15.92626953 C-2.46440682 13.15429418 -2.46440682 13.15429418 -2.84814453 9.12939453 C-4.49410964 7.4422803 -6.16051602 5.77483233 -7.84814453 4.12939453 C-7.84814453 3.13939453 -7.84814453 2.14939453 -7.84814453 1.12939453 C-5.14208552 -0.22363498 -3.02983773 0.00222321 0 0 Z " fill="#DEDEDE" transform="translate(395.84814453125,130.87060546875)"/>
<path d="M0 0 C0.98484375 0.02707031 1.9696875 0.05414063 2.984375 0.08203125 C3.73203125 0.11683594 4.4796875 0.15164062 5.25 0.1875 C6.18423645 3.19781744 6.29449911 4.05400268 5.25 7.1875 C4.13625 7.31125 3.0225 7.435 1.875 7.5625 C-1.78103677 7.8340813 -1.78103677 7.8340813 -3.75 10.1875 C-4.46927295 12.50515729 -5.1409893 14.83845874 -5.75 17.1875 C-4.47125 17.208125 -3.1925 17.22875 -1.875 17.25 C-1.15570313 17.26160156 -0.43640625 17.27320313 0.3046875 17.28515625 C2.33185404 17.31399242 2.33185404 17.31399242 4.25 16.1875 C4.97736913 14.00587057 4.97736913 14.00587057 5.5625 11.4375 C6.85983633 6.81077502 8.40969102 4.24005329 12.25 1.1875 C14.89458379 -0.13479189 16.92761301 0.09072806 19.875 0.125 C21.37933594 0.13853516 21.37933594 0.13853516 22.9140625 0.15234375 C23.68492187 0.16394531 24.45578125 0.17554688 25.25 0.1875 C24.92 2.4975 24.59 4.8075 24.25 7.1875 C21.61 7.5175 18.97 7.8475 16.25 8.1875 C15.26 11.1575 14.27 14.1275 13.25 17.1875 C15.23 17.1875 17.21 17.1875 19.25 17.1875 C19.9375 19 19.9375 19 20.25 21.1875 C19.1875 22.9375 19.1875 22.9375 17.25 24.1875 C15.25062627 24.2375469 13.24926399 24.24175411 11.25 24.1875 C11.14042969 25.2290625 11.03085938 26.270625 10.91796875 27.34375 C10.09348667 34.91084119 9.14955397 42.44224165 7.8125 49.9375 C7.58691406 51.21109375 7.36132812 52.4846875 7.12890625 53.796875 C5.89042388 58.57466478 4.58089257 61.34845903 0.375 64 C-2.64484622 65.14754156 -4.56579673 65.55140894 -7.75 65.1875 C-8.75 64.1875 -8.75 64.1875 -8.8125 61.125 C-8.791875 60.155625 -8.77125 59.18625 -8.75 58.1875 C-6.275 57.6925 -6.275 57.6925 -3.75 57.1875 C-1.77981866 50.06131217 -0.27426613 42.91319046 0.9375 35.625 C1.06874268 34.83947754 1.19998535 34.05395508 1.33520508 33.24462891 C1.82922585 30.19303179 2.25 27.28405581 2.25 24.1875 C-0.39 24.1875 -3.03 24.1875 -5.75 24.1875 C-7.67120038 28.40919355 -8.45939462 32.64232637 -9.1875 37.1875 C-9.44861736 38.7034541 -9.71166056 40.21907765 -9.9765625 41.734375 C-10.45702934 44.4937969 -10.93065055 47.25399123 -11.3984375 50.015625 C-13.21359537 59.36902671 -13.21359537 59.36902671 -16.5 62.4375 C-20.04857703 64.34827225 -22.73359946 65.0299941 -26.75 65.1875 C-27.75 64.1875 -27.75 64.1875 -27.8125 61.125 C-27.791875 60.155625 -27.77125 59.18625 -27.75 58.1875 C-24.78 57.6925 -24.78 57.6925 -21.75 57.1875 C-21.64042969 56.51847656 -21.53085938 55.84945312 -21.41796875 55.16015625 C-20.37291085 48.83033399 -19.29404431 42.50682582 -18.1875 36.1875 C-18.06076904 35.45797119 -17.93403809 34.72844238 -17.8034668 33.97680664 C-17.22375653 30.68259824 -16.63268585 27.41560823 -15.75 24.1875 C-17.07 23.8575 -18.39 23.5275 -19.75 23.1875 C-19.42 21.5375 -19.09 19.8875 -18.75 18.1875 C-17.1 17.8575 -15.45 17.5275 -13.75 17.1875 C-13.71261719 16.59582031 -13.67523438 16.00414062 -13.63671875 15.39453125 C-13.15790893 9.63942499 -12.39823643 5.64615351 -8.00390625 1.56640625 C-5.1470749 -0.18136059 -3.320501 -0.11858932 0 0 Z " fill="#DBDBDB" transform="translate(197.75,196.8125)"/>
<path d="M0 0 C-0.29839545 3.33731751 -0.64217676 6.66854228 -1 10 C-1.12246094 11.14726562 -1.24492187 12.29453125 -1.37109375 13.4765625 C-4.25298771 37.70487452 -4.25298771 37.70487452 -11 45 C-16.52908357 49.11136984 -23.39379902 48.67914216 -30 48 C-30.99 47.34 -31.98 46.68 -33 46 C-32.39816251 43.97954558 -31.72693904 41.97888961 -31 40 C-30.01 39.505 -30.01 39.505 -29 39 C-28.01 39.33 -27.02 39.66 -26 40 C-20.66704568 40.343491 -20.66704568 40.343491 -16 38 C-14.79549696 35.44816596 -14.79549696 35.44816596 -14 33 C-14.65226562 33.11859375 -15.30453125 33.2371875 -15.9765625 33.359375 C-20.65879504 34.04996977 -23.21254663 34.3868192 -27.5625 32.25 C-30.40614312 29.62509865 -30.91342027 28.13885641 -31.203125 24.328125 C-31.33871142 15.42461681 -29.81656058 9.19890607 -23.73046875 2.51171875 C-16.97944503 -3.38590242 -7.97397147 -3.18958859 0 0 Z M-18.8125 8.875 C-21.69057949 12.98654212 -22.12009392 14.67192252 -22.0625 19.625 C-22.05347656 20.62789062 -22.04445313 21.63078125 -22.03515625 22.6640625 C-22.02355469 23.43492187 -22.01195312 24.20578125 -22 25 C-19.25038489 25.94607807 -19.25038489 25.94607807 -16 26 C-12.50546053 23.51499416 -11.21212738 21.86482703 -10.1875 17.6875 C-9.98852815 13.77438695 -9.93127615 9.9172594 -10 6 C-14.19473242 5.4146885 -16.13357413 5.64775597 -18.8125 8.875 Z " fill="#DBDBDB" transform="translate(289,159)"/>
<path d="M0 0 C1.03125 0.00322266 2.0625 0.00644531 3.125 0.00976562 C4.74535156 0.02233398 4.74535156 0.02233398 6.3984375 0.03515625 C8.03039062 0.04192383 8.03039062 0.04192383 9.6953125 0.04882812 C12.38807539 0.06063849 15.08072938 0.07710847 17.7734375 0.09765625 C18.57296888 3.38461858 18.87002686 4.80788817 17.7734375 8.09765625 C12.1634375 8.09765625 6.5534375 8.09765625 0.7734375 8.09765625 C0.4434375 10.73765625 0.1134375 13.37765625 -0.2265625 16.09765625 C-0.5565625 17.41765625 -0.8865625 18.73765625 -1.2265625 20.09765625 C3.7234375 20.09765625 8.6734375 20.09765625 13.7734375 20.09765625 C13.7734375 22.40765625 13.7734375 24.71765625 13.7734375 27.09765625 C12.7734375 28.09765625 12.7734375 28.09765625 9.39453125 28.1953125 C7.99996673 28.18863994 6.60542007 28.17668157 5.2109375 28.16015625 C4.50001953 28.15564453 3.78910156 28.15113281 3.05664062 28.14648438 C1.29553737 28.13466489 -0.46552286 28.11672888 -2.2265625 28.09765625 C-2.8865625 32.38765625 -3.5465625 36.67765625 -4.2265625 41.09765625 C1.3834375 41.09765625 6.9934375 41.09765625 12.7734375 41.09765625 C12.4434375 43.73765625 12.1134375 46.37765625 11.7734375 49.09765625 C3.1934375 49.09765625 -5.3865625 49.09765625 -14.2265625 49.09765625 C-14.2265625 40.09463472 -14.2265625 40.09463472 -13.61572266 36.53344727 C-13.48203278 35.73644913 -13.3483429 34.93945099 -13.21060181 34.11830139 C-13.06375946 33.28777756 -12.91691711 32.45725372 -12.765625 31.6015625 C-12.61499603 30.72741196 -12.46436707 29.85326141 -12.30917358 28.95262146 C-11.99141909 27.12089701 -11.67021304 25.28976824 -11.34570312 23.45922852 C-10.84905091 20.64592926 -10.36928495 17.83008159 -9.890625 15.01367188 C-9.57913533 13.23029199 -9.26667049 11.44708209 -8.953125 9.6640625 C-8.81033112 8.81936905 -8.66753723 7.9746756 -8.52041626 7.10438538 C-8.15630218 5.08884462 -7.70022266 3.09030013 -7.2265625 1.09765625 C-4.66933021 -0.1809599 -2.85919148 -0.01570984 0 0 Z " fill="#DADADA" transform="translate(159.2265625,198.90234375)"/>
<path d="M0 0 C0.763125 0.495 1.52625 0.99 2.3125 1.5 C1.4375 6.25 1.4375 6.25 0.3125 8.5 C-0.5125 8.335 -1.3375 8.17 -2.1875 8 C-7.15011994 7.29105429 -11.86545751 6.8926525 -16.6875 8.5 C-16.61481578 11.55273742 -16.37365503 13.7437131 -14.2734375 16.05859375 C-12.45273301 17.60258324 -10.59630163 19.06645102 -8.6875 20.5 C-1.8266739 25.71546961 -1.8266739 25.71546961 -0.6875 30.5 C-0.36365508 35.03382887 -0.47239764 38.49171954 -2.6875 42.5 C-5.31793503 45.46767029 -6.90598945 47.23949648 -10.6875 48.5 C-13.55198509 48.59652378 -16.38631075 48.63925903 -19.25 48.625 C-20.03052734 48.62886719 -20.81105469 48.63273437 -21.61523438 48.63671875 C-27.43414502 48.62667749 -27.43414502 48.62667749 -29.6875 47.5 C-29.72991723 45.16705225 -29.72842937 42.83297433 -29.6875 40.5 C-29.1925 40.005 -29.1925 40.005 -28.6875 39.5 C-25.4412491 39.68340401 -22.21960264 40.02169114 -18.984375 40.34375 C-15.96501232 40.48684776 -13.59883985 40.24425229 -10.6875 39.5 C-10.36317632 36.01352041 -10.36333503 34.04027496 -12.1875 31 C-14.30984267 28.87765733 -16.3311795 27.24618349 -18.75 25.5 C-22.79399057 22.51783936 -25.21350888 20.36349272 -26.06640625 15.2109375 C-26.40584994 10.429837 -26.07130534 7.28372153 -23 3.5 C-17.05992067 -2.88520156 -7.690273 -3.12824664 0 0 Z " fill="#DADADA" transform="translate(131.6875,144.5)"/>
<path d="M0 0 C1.18081242 3.54243725 0.78961315 5.46034013 0.1875 9.125 C-0.09673828 10.86716797 -0.09673828 10.86716797 -0.38671875 12.64453125 C-0.8896995 15.39650873 -1.46585158 18.09529106 -2.125 20.8125 C-3.10721879 24.95623552 -3.15452305 28.7506162 -3 33 C-5.875 33.625 -5.875 33.625 -9 34 C-9.66 33.34 -10.32 32.68 -11 32 C-11.99 32.66 -12.98 33.32 -14 34 C-18.86796039 34.63915205 -23.46048699 35.02634201 -27.625 32.25 C-30.93000474 26.84181043 -30.61624819 20.4729241 -29.5390625 14.40234375 C-28.04485508 8.57493481 -26.037699 4.44564966 -21 1 C-14.52065287 -2.52809171 -6.67266565 -3.8418378 0 0 Z M-17.8125 8.8125 C-20.5913399 12.86166671 -21.12470681 15.39757598 -21.0625 20.1875 C-21.05347656 21.08855469 -21.04445312 21.98960937 -21.03515625 22.91796875 C-21.02355469 23.60503906 -21.01195312 24.29210937 -21 25 C-18.1340483 26.72894248 -18.1340483 26.72894248 -14.9375 26.5 C-11.29124997 23.67709675 -9.88463386 19.40678718 -9 15 C-8.93451508 13.41788427 -8.91421619 11.83329919 -8.9375 10.25 C-8.94652344 9.45078125 -8.95554688 8.6515625 -8.96484375 7.828125 C-8.97644531 7.22484375 -8.98804688 6.6215625 -9 6 C-13.4381682 5.38072072 -14.55881588 5.55881588 -17.8125 8.8125 Z " fill="#DADADA" transform="translate(205,159)"/>
<path d="M0 0 C6.15175027 0 9.93429961 1.05305616 15.5625 3.125 C16.39974609 3.40859375 17.23699219 3.6921875 18.09960938 3.984375 C23.67869327 6.01634538 26.73186745 7.99280094 30 13 C30.66885928 17.23610875 30.52147701 19.16191195 28.25 22.8125 C24.7752048 26.19077311 22.13298731 27.25513748 17.3046875 27.23046875 C16.42425781 27.22853516 15.54382813 27.22660156 14.63671875 27.22460938 C13.72535156 27.21236328 12.81398438 27.20011719 11.875 27.1875 C10.95589844 27.18685547 10.03679687 27.18621094 9.08984375 27.18554688 C2.28111049 27.14055525 2.28111049 27.14055525 0 26 C0 17.42 0 8.84 0 0 Z " fill="#DDDDDD" transform="translate(342,213)"/>
<path d="M0 0 C2.76277608 2.22556962 3.93118757 3.48076334 5.25 6.8125 C5.48883856 10.49372908 5.42415368 14.12947214 5.25 17.8125 C1.15996141 18.96232602 -2.78177051 18.92344256 -7 18.875 C-7.74507812 18.87048828 -8.49015625 18.86597656 -9.2578125 18.86132812 C-11.0885764 18.84959246 -12.91929873 18.8316585 -14.75 18.8125 C-14.09 21.1225 -13.43 23.4325 -12.75 25.8125 C-8.24460954 26.86026522 -5.9341104 26.68433886 -1.75 24.8125 C-0.43 24.8125 0.89 24.8125 2.25 24.8125 C2.5 27.625 2.5 27.625 2.25 30.8125 C-0.1647917 33.40976966 -1.70171905 33.80602658 -5.24609375 34.28125 C-6.54675781 34.2915625 -7.84742188 34.301875 -9.1875 34.3125 C-11.13462891 34.35890625 -11.13462891 34.35890625 -13.12109375 34.40625 C-17.55312091 33.68109593 -18.9390537 32.21716019 -21.75 28.8125 C-22.08 28.4825 -22.41 28.1525 -22.75 27.8125 C-23.51673174 17.84498743 -23.26485019 10.34683249 -16.8125 2.4375 C-11.73552113 -1.56254396 -6.04292991 -2.609447 0 0 Z M-12.0625 8.8125 C-12.619375 9.8025 -13.17625 10.7925 -13.75 11.8125 C-11.22946405 13.07276798 -9.8957902 12.73124445 -7.125 12.375 C-6.30773437 12.27316406 -5.49046875 12.17132813 -4.6484375 12.06640625 C-4.02195313 11.98261719 -3.39546875 11.89882812 -2.75 11.8125 C-3.12904208 8.52174004 -3.12904208 8.52174004 -4.75 5.8125 C-8.83490553 5.03968003 -9.45150796 5.42526708 -12.0625 8.8125 Z " fill="#DBDBDB" transform="translate(237.75,214.1875)"/>
<path d="M0 0 C3.24165752 1.68316833 5.38064005 3.04280736 7.375 6.125 C8.30214903 10.38988552 8.34618362 14.65257775 8 19 C6.48578999 20.51421001 5.07527232 20.21309856 2.96484375 20.31640625 C2.15595703 20.35830078 1.34707031 20.40019531 0.51367188 20.44335938 C-0.33646484 20.48267578 -1.18660156 20.52199219 -2.0625 20.5625 C-2.91650391 20.60568359 -3.77050781 20.64886719 -4.65039062 20.69335938 C-6.76672037 20.79976702 -8.88333813 20.90041731 -11 21 C-12.34589166 23.90096594 -12.34589166 23.90096594 -11 26.1875 C-9.04456613 28.32236104 -9.04456613 28.32236104 -5.75 28.3125 C-2.13419104 28.01118259 1.41937155 27.5845924 5 27 C5.3125 29.8125 5.3125 29.8125 5 33 C1.23645493 35.9844008 -1.77275403 36.4081349 -6.5 36.375 C-7.6034375 36.38273437 -8.706875 36.39046875 -9.84375 36.3984375 C-13.39116475 35.95062029 -15.22240167 35.23968316 -18 33 C-21.20886987 27.23178982 -20.82619906 19.93735491 -19.5 13.6171875 C-17.52723962 7.7213241 -14.25455963 4.39111126 -9.0625 1.1875 C-5.64428222 -0.13793138 -3.62814292 -0.52910418 0 0 Z M-8.8125 9.875 C-10.16260712 11.8852657 -10.16260712 11.8852657 -10 14 C-7.03 14 -4.06 14 -1 14 C-0.67 12.68 -0.34 11.36 0 10 C-1.82471891 7.78103864 -1.82471891 7.78103864 -4.4375 7.625 C-7.13006386 7.7525967 -7.13006386 7.7525967 -8.8125 9.875 Z " fill="#DADADA" transform="translate(249,157)"/>
<path d="M0 0 C0.495 0.33 0.99 0.66 1.5 1 C1.17 2.65 0.84 4.3 0.5 6 C-2.90562852 6.77842938 -6.00765756 7.09978121 -9.5 7 C-9.5 8.32 -9.5 9.64 -9.5 11 C-7.54109119 12.39300182 -5.5360882 13.72245446 -3.5 15 C-0.6306479 17.67806196 -0.50713356 18.92509763 -0.125 22.9375 C-0.27104352 26.6720415 -1.13772362 29.02528159 -3.5 32 C-7.80830986 34.87220658 -11.98267376 35.3857822 -17.0234375 34.61328125 C-19.20113011 34.12896791 -21.3520086 33.60163648 -23.5 33 C-24.12109375 31.140625 -24.12109375 31.140625 -24.5 29 C-22.5625 26.75 -22.5625 26.75 -20.5 25 C-19.448125 25.5259375 -19.448125 25.5259375 -18.375 26.0625 C-14.99731414 27.1639193 -12.91919407 26.79516141 -9.5 26 C-9.86839483 23.35322485 -10.1740075 22.2672422 -12.27734375 20.54296875 C-12.99019531 20.09566406 -13.70304687 19.64835937 -14.4375 19.1875 C-17.49589918 16.99821425 -18.46978553 16.061548 -20.1875 12.5625 C-20.58527585 8.02785528 -19.93867095 5.84275422 -17.5 2 C-12.03039773 -1.3246602 -6.07326169 -2.42930468 0 0 Z " fill="#DBDBDB" transform="translate(315.5,214)"/>
<path d="M0 0 C-0.33 2.64 -0.66 5.28 -1 8 C1.31 8 3.62 8 6 8 C6.04254356 9.99954746 6.04080783 12.00041636 6 14 C4.03177114 15.96822886 0.65191291 15.66248381 -2 16 C-3.55010435 25.99257314 -3.55010435 25.99257314 -5 36 C-2.03 35.505 -2.03 35.505 1 35 C1.625 37.3125 1.625 37.3125 2 40 C1.34 40.99 0.68 41.98 0 43 C-2.49609375 43.43359375 -2.49609375 43.43359375 -5.4375 43.4375 C-6.40558594 43.45683594 -7.37367188 43.47617188 -8.37109375 43.49609375 C-11 43 -11 43 -12.86328125 41.42578125 C-14.46155509 38.01503193 -14.09738791 35.48064407 -13.75 31.75 C-13.66310913 30.75117798 -13.66310913 30.75117798 -13.57446289 29.73217773 C-13.16174872 25.14080258 -12.65189117 20.56323816 -12 16 C-12.99 15.67 -13.98 15.34 -15 15 C-16 12 -16 12 -15.3125 9.875 C-14 8 -14 8 -12 7.625 C-11.01 7.315625 -11.01 7.315625 -10 7 C-8.84164327 4.02496878 -8.84164327 4.02496878 -8 1 C-5.29120665 -0.35439668 -2.99066732 -0.06501451 0 0 Z " fill="#DADADA" transform="translate(224,150)"/>
<path d="M0 0 C0 2.64 0 5.28 0 8 C0.8971875 7.6596875 0.8971875 7.6596875 1.8125 7.3125 C4 7 4 7 5.8125 8.125 C7 10 7 10 6.6875 12.6875 C6.460625 13.450625 6.23375 14.21375 6 15 C3.69 15.33 1.38 15.66 -1 16 C-1.50207679 18.79130788 -2.00175075 21.58300871 -2.5 24.375 C-2.71462891 25.56609375 -2.71462891 25.56609375 -2.93359375 26.78125 C-3.7112083 30.86495914 -3.7112083 30.86495914 -4 35 C-2.02 35 -0.04 35 2 35 C2.6875 37.3125 2.6875 37.3125 3 40 C1.8359375 41.65234375 1.8359375 41.65234375 0 43 C-2.41015625 43.328125 -2.41015625 43.328125 -5.0625 43.25 C-5.94035156 43.23453125 -6.81820312 43.2190625 -7.72265625 43.203125 C-10 43 -10 43 -12 42 C-13.28003904 38.15988289 -12.89650389 34.72074441 -12.625 30.75 C-12.58117187 30.01136719 -12.53734375 29.27273437 -12.4921875 28.51171875 C-12.20340297 23.9633624 -11.70282492 19.50284438 -11 15 C-11.99 15 -12.98 15 -14 15 C-15 12 -15 12 -14.3125 9.875 C-13 8 -13 8 -10.875 7.25 C-9.946875 7.12625 -9.946875 7.12625 -9 7 C-8.938125 6.05125 -8.87625 5.1025 -8.8125 4.125 C-8 1 -8 1 -5.625 -0.4375 C-3 -1 -3 -1 0 0 Z " fill="#D9D9D9" transform="translate(149,150)"/>
<path d="M0 0 C1.134375 0.020625 2.26875 0.04125 3.4375 0.0625 C3.1075 2.7025 2.7775 5.3425 2.4375 8.0625 C4.7475 8.0625 7.0575 8.0625 9.4375 8.0625 C9.4375 10.0425 9.4375 12.0225 9.4375 14.0625 C7.1275 14.3925 4.8175 14.7225 2.4375 15.0625 C0.72628246 19.58400975 0.08526388 23.61867153 -0.1875 28.4375 C-0.26226562 29.68273437 -0.33703125 30.92796875 -0.4140625 32.2109375 C-0.46304687 33.15195313 -0.51203125 34.09296875 -0.5625 35.0625 C1.4175 35.0625 3.3975 35.0625 5.4375 35.0625 C6.125 36.875 6.125 36.875 6.4375 39.0625 C5.4375 40.75 5.4375 40.75 3.4375 42.0625 C-1.24308864 43.18930838 -4.2737699 43.33300417 -8.5625 41.0625 C-10.31660755 39.30839245 -9.69452051 37.02408094 -9.70117188 34.68945312 C-9.69666016 33.96693359 -9.69214844 33.24441406 -9.6875 32.5 C-9.68556641 31.77361328 -9.68363281 31.04722656 -9.68164062 30.29882812 C-9.64273078 25.47833011 -9.35617723 20.82456341 -8.5625 16.0625 C-9.5525 15.4025 -10.5425 14.7425 -11.5625 14.0625 C-11.2325 12.0825 -10.9025 10.1025 -10.5625 8.0625 C-9.94375 8.02125 -9.325 7.98 -8.6875 7.9375 C-7.98625 7.64875 -7.285 7.36 -6.5625 7.0625 C-5.32492123 4.09989474 -5.32492123 4.09989474 -4.5625 1.0625 C-3.5625 0.0625 -3.5625 0.0625 0 0 Z " fill="#DDDDDD" transform="translate(283.5625,205.9375)"/>
<path d="M0 0 C-0.33 1.98 -0.66 3.96 -1 6 C-1.75925781 6.01417969 -2.51851563 6.02835938 -3.30078125 6.04296875 C-6.27568282 6.18573316 -9.08113425 6.40070555 -12 7 C-14.26453908 9.21478847 -14.26453908 9.21478847 -15 12 C-15.33 12.99 -15.66 13.98 -16 15 C-16.2315988 16.954862 -16.2315988 16.954862 -16.25 19 C-16.27578125 19.680625 -16.3015625 20.36125 -16.328125 21.0625 C-16.12927935 23.08134304 -16.12927935 23.08134304 -14.77734375 24.73828125 C-12.47772752 26.37075607 -11.10328055 26.30883828 -8.3125 26.1875 C-7.50425781 26.16042969 -6.69601562 26.13335937 -5.86328125 26.10546875 C-4.94095703 26.05326172 -4.94095703 26.05326172 -4 26 C-3.875 28.875 -3.875 28.875 -4 32 C-6.74808262 34.74808262 -8.47774534 34.3636712 -12.3125 34.4375 C-18.50610858 34.34862924 -18.50610858 34.34862924 -22.1875 31.75 C-22.785625 30.8425 -23.38375 29.935 -24 29 C-24.433125 28.401875 -24.86625 27.80375 -25.3125 27.1875 C-27.46257552 20.34635063 -25.88335567 12.40428504 -23 6 C-17.31198603 -0.87150733 -8.47079935 -5.42131159 0 0 Z " fill="#DADADA" transform="translate(329,159)"/>
<path d="M0 0 C1.28583984 -0.02513672 1.28583984 -0.02513672 2.59765625 -0.05078125 C5.35854781 0.37787136 6.21528897 1.17244105 7.9375 3.3125 C7.2775 4.9625 6.6175 6.6125 5.9375 8.3125 C5.33421875 8.25449219 4.7309375 8.19648438 4.109375 8.13671875 C1.63862106 7.9972407 -0.60995618 7.96576105 -3.0625 8.3125 C-6.25769059 11.2680513 -7.92339467 14.05408406 -8.1953125 18.46875 C-8.19273437 19.2421875 -8.19015625 20.015625 -8.1875 20.8125 C-8.19007813 21.5859375 -8.19265625 22.359375 -8.1953125 23.15625 C-8.14395813 25.49697017 -8.14395813 25.49697017 -7.0625 28.3125 C-3.4325 27.9825 0.1975 27.6525 3.9375 27.3125 C3.6075 29.9525 3.2775 32.5925 2.9375 35.3125 C-3.24817731 36.37208361 -8.17529639 36.70729469 -14.0625 34.3125 C-17.85809125 29.7577905 -18.70989697 25.88655584 -18.44921875 20.0078125 C-17.57248742 13.8972608 -15.9218322 8.2183155 -11.5625 3.75 C-10.7375 3.275625 -9.9125 2.80125 -9.0625 2.3125 C-8.45535156 1.95929688 -7.84820312 1.60609375 -7.22265625 1.2421875 C-4.6824462 0.14893254 -2.75839123 0.01248141 0 0 Z " fill="#DCDCDC" transform="translate(262.0625,212.6875)"/>
<path d="M0 0 C1.33143786 6.41510967 1.33143786 6.41510967 -0.0625 8.875 C-2 10 -2 10 -5 10.3125 C-8.21919409 10.67932305 -8.21919409 10.67932305 -9.62109375 13.56640625 C-11.13348058 17.33237798 -11.64653017 20.594535 -12.0625 24.625 C-12.89363456 32.55639842 -12.89363456 32.55639842 -15 36 C-17.31 36 -19.62 36 -22 36 C-22.20713231 28.6889967 -21.45752241 21.77921211 -20.3125 14.5625 C-20.16361328 13.47517578 -20.01472656 12.38785156 -19.86132812 11.26757812 C-19.69697266 10.23181641 -19.53261719 9.19605469 -19.36328125 8.12890625 C-19.22188721 7.19119385 -19.08049316 6.25348145 -18.93481445 5.28735352 C-18 3 -18 3 -15.55957031 1.70532227 C-13.15181448 1.04183442 -10.92131844 0.60826295 -8.4375 0.375 C-7.69371094 0.30023438 -6.94992188 0.22546875 -6.18359375 0.1484375 C-4.12654945 0.00860265 -2.06179171 0 0 0 Z " fill="#DBDBDB" transform="translate(178,157)"/>
<path d="M0 0 C1.52102456 3.04204913 0.56553073 5.91560124 0.0390625 9.16015625 C-0.12597275 10.21776405 -0.12597275 10.21776405 -0.29434204 11.29673767 C-0.52844826 12.78758392 -0.76570567 14.27793822 -1.00585938 15.76782227 C-1.3738926 18.05561609 -1.73066929 20.34495866 -2.0859375 22.63476562 C-2.31443753 24.08083466 -2.54358232 25.526802 -2.7734375 26.97265625 C-2.88078217 27.66118179 -2.98812683 28.34970734 -3.09872437 29.05909729 C-3.88443411 33.88443411 -3.88443411 33.88443411 -5 35 C-7.33297433 35.04092937 -9.66705225 35.04241723 -12 35 C-12.91889563 23.13093138 -10.21701896 11.59807524 -8 0 C-4.92605694 -0.85709523 -3.04352525 -1.15444061 0 0 Z " fill="#DADADA" transform="translate(302,158)"/>
<path d="M0 0 C2.5 0.25 2.5 0.25 4.5 2.25 C4.75 5.25 4.75 5.25 4.5 8.25 C2.5 10.25 2.5 10.25 0.0625 10.5625 C-2.5 10.25 -2.5 10.25 -4.375 9.0625 C-5.5 7.25 -5.5 7.25 -5.3125 4.6875 C-4.22827241 1.43481722 -3.47807945 0.34780795 0 0 Z " fill="#DDDDDD" transform="translate(299.5,144.75)"/>
<path d="M0 0 C6.93 0 13.86 0 21 0 C21 0.33 21 0.66 21 1 C11.595 1.495 11.595 1.495 2 2 C1.67 2.66 1.34 3.32 1 4 C0.34 4 -0.32 4 -1 4 C-0.67 2.68 -0.34 1.36 0 0 Z " fill="#D6D6D6" transform="translate(421,214)"/>
<path d="M0 0 C0 1.32 0 2.64 0 4 C-0.66 4 -1.32 4 -2 4 C-2 3.34 -2 2.68 -2 2 C-2.99 2.33 -3.98 2.66 -5 3 C-5 2.34 -5 1.68 -5 1 C-5.66 0.67 -6.32 0.34 -7 0 C-3.86650268 -1.04449911 -3.01031744 -0.93423645 0 0 Z " fill="#E0E0E0" transform="translate(152,186)"/>
<path d="M0 0 C0.99 0.33 1.98 0.66 3 1 C3 3.64 3 6.28 3 9 C1 7 1 7 0.875 4.375 C0.91625 3.59125 0.9575 2.8075 1 2 C0.01 1.67 -0.98 1.34 -2 1 C-1.34 0.67 -0.68 0.34 0 0 Z " fill="#E1E1E1" transform="translate(146,149)"/>
</svg>
